<?xml version="1.0" standalone="no"?>
<!DOCTYPE svg PUBLIC "-//W3C//DTD SVG 1.1//EN" "http://www.w3.org/Graphics/SVG/1.1/DTD/svg11.dtd" >
<svg xmlns="http://www.w3.org/2000/svg">
<metadata></metadata>
<defs>
<font id="alright_sanslight" horiz-adv-x="423" >
<font-face units-per-em="2048" ascent="1556" descent="-492" />
<missing-glyph horiz-adv-x="522" />
<glyph unicode="&#xfb01;" horiz-adv-x="1177" d="M51 950v90h195v113q0 215 103.5 309t295.5 94q197 0 367 -114l-49 -78q-150 100 -314 100q-143 0 -217 -71.5t-74 -239.5v-113h301v-90h-301v-950h-112v950h-195zM885 0v1042h112v-1042h-112z" />
<glyph unicode="&#xfb02;" horiz-adv-x="1214" d="M51 950v90h195v121q0 201 106.5 299.5t288.5 98.5t287.5 -99.5t105.5 -300.5v-1159h-112v1159q0 154 -74 229.5t-209 75.5q-133 0 -207 -75.5t-74 -229.5v-119h301v-90h-301v-950h-112v950h-195z" />
<glyph unicode="&#xfb03;" horiz-adv-x="1779" d="M51 950v90h195v107q0 399 391 399q164 0 309 -90q98 100 301 100q197 0 367 -114l-49 -78q-147 100 -314 100q-143 0 -216.5 -71.5t-73.5 -239.5v-113h301v-90h-301v-950h-113v950h-490v-950h-112v950h-195zM358 1040h490v113q0 143 47 233q-117 68 -252 68 q-139 0 -212 -71.5t-73 -235.5v-107zM1487 0v1042h112v-1042h-112z" />
<glyph unicode="&#xfb04;" horiz-adv-x="1816" d="M51 950v90h195v107q0 399 391 399q168 0 311 -92q102 104 295 105q182 0 287.5 -99.5t105.5 -300.5v-1159h-114v1159q0 305 -281 305q-133 0 -206.5 -75.5t-73.5 -229.5v-119h301v-90h-301v-950h-113v950h-490v-950h-112v950h-195zM358 1040h490v121q0 131 49 223 q-117 70 -254 70q-139 0 -212 -71.5t-73 -235.5v-107z" />
<glyph horiz-adv-x="2048" />
<glyph horiz-adv-x="2048" />
<glyph unicode="&#xd;" horiz-adv-x="681" />
<glyph unicode=" "  horiz-adv-x="522" />
<glyph unicode="&#x09;" horiz-adv-x="522" />
<glyph unicode="&#xa0;" horiz-adv-x="522" />
<glyph unicode="!" horiz-adv-x="495" d="M184 977v457h125v-457l-30 -563h-64zM186 0v203h123v-203h-123z" />
<glyph unicode="&#x22;" horiz-adv-x="798" d="M147 950v484h132l-60 -488zM524 950v484h131l-59 -488z" />
<glyph unicode="#" horiz-adv-x="1323" d="M76 293v88h284l60 350h-277v88h291l47 279h97l-48 -279h332l47 279h99l-47 -279h284v-88h-299l-59 -350h289v-88h-304l-47 -293h-98l47 293h-330l-47 -293h-98l47 293h-270zM459 381h329l60 350h-332z" />
<glyph unicode="$" horiz-adv-x="1075" d="M111 86l55 84q143 -94 350 -100v442q-72 16 -115 27.5t-101 36t-90 54t-55.5 80t-23.5 113.5q0 127 100.5 209t280.5 90v211h76v-213q190 -8 336 -78l-45 -86q-133 61 -295 70v-428q90 -20 142 -36.5t116.5 -51.5t95.5 -91.5t31 -137.5q0 -129 -97.5 -212t-283.5 -92 v-249h-76v247q-237 9 -401 111zM240 827q0 -96 70.5 -140t205.5 -75v416q-131 -6 -203.5 -61.5t-72.5 -139.5zM584 70q139 8 207.5 63t68.5 143q0 98 -70.5 143.5t-205.5 76.5v-426z" />
<glyph unicode="%" horiz-adv-x="1482" d="M115 846q0 115 80.5 194.5t197.5 79.5q119 0 200 -79.5t81 -194.5q0 -119 -81 -198t-200 -79q-117 0 -197.5 80t-80.5 197zM197 846q0 -84 57 -142.5t141 -58.5q82 0 139.5 58.5t57.5 142.5t-57.5 141t-139.5 57q-84 0 -141 -57t-57 -141zM281 0l813 1098h98l-815 -1098 h-96zM809 252q0 117 81 196.5t200 79.5q117 0 197.5 -79.5t80.5 -196.5t-81 -196t-197 -79q-119 0 -200 79t-81 196zM893 252q0 -84 57.5 -141.5t139.5 -57.5q84 0 140 57.5t56 141.5t-56 141.5t-140 57.5t-140.5 -57.5t-56.5 -141.5z" />
<glyph unicode="&#x26;" horiz-adv-x="1519" d="M96 393q0 139 85 254t225 191q-111 147 -111 288q0 137 100.5 234.5t257.5 97.5q213 0 342 -149l-73 -66q-106 121 -271 121q-109 0 -176 -69.5t-67 -166.5q0 -131 133 -288q211 -236 551 -492q111 160 110 354h105q0 -227 -133 -415l290 -207l-65 -84l-291 209 q-215 -229 -526 -230q-227 0 -356.5 123t-129.5 295zM205 399q0 -135 100.5 -230t280.5 -95q258 -1 440 192q-348 268 -563 504q-258 -143 -258 -371z" />
<glyph unicode="'" horiz-adv-x="421" d="M147 950v484h132l-60 -488z" />
<glyph unicode="(" horiz-adv-x="749" d="M129 567.5q0 540.5 391 978.5h131q-178 -180 -294.5 -428t-116.5 -551q0 -553 411 -977h-131q-391 437 -391 977.5z" />
<glyph unicode=")" horiz-adv-x="749" d="M98 -410q412 424 412 977q0 303 -117 551t-295 428h131q392 -438 392 -978.5t-392 -977.5h-131z" />
<glyph unicode="*" horiz-adv-x="858" d="M100 1075v105l291 -17l2 4l-114 265l94 28l78 -274l4 -2l219 186l59 -80l-241 -153v-4l249 -150l-61 -82l-223 180l-4 -2l-72 -284l-92 30l106 277l-4 4z" />
<glyph unicode="+" horiz-adv-x="1255" d="M104 473v102h469v472h109v-472h469v-102h-469v-473h-109v473h-469z" />
<glyph unicode="," d="M72 -221q119 63 118 221h-40v213h124v-190q0 -119 -40.5 -189t-129.5 -110z" />
<glyph unicode="-" horiz-adv-x="763" d="M96 479v103h574v-103h-574z" />
<glyph unicode="." d="M150 0v213h124v-213h-124z" />
<glyph unicode="/" horiz-adv-x="987" d="M-20 -410l913 1956h117l-914 -1956h-116z" />
<glyph unicode="0" horiz-adv-x="1329" d="M115 549q0 250 159.5 410.5t389.5 160.5q231 0 389.5 -160.5t158.5 -410.5q0 -252 -158.5 -413t-389.5 -161q-229 0 -389 162t-160 412zM231 549q0 -205 123 -340t310 -135q188 0 311 135t123 340t-123 339t-311 134q-186 0 -309.5 -134t-123.5 -339z" />
<glyph unicode="1" horiz-adv-x="839" d="M137 963l324 141h94v-1104h-115v987l-262 -113z" />
<glyph unicode="2" horiz-adv-x="1212" d="M145 0v45q-2 104 42 185t117 131.5t160 90.5t175 72.5t160.5 67.5t119 86t46.5 119q0 109 -94.5 168t-235.5 59q-117 0 -228.5 -46t-187.5 -122l-69 76q88 84 219 136t264 52q193 0 319.5 -86t126.5 -235q0 -113 -82 -192t-199.5 -125t-236.5 -90t-205 -117.5t-90 -176.5 h819v-98h-940z" />
<glyph unicode="3" horiz-adv-x="1177" d="M88 938q201 186 463 186q219 0 353 -103t134 -263q0 -131 -75.5 -217t-206.5 -119q147 -25 243.5 -113t96.5 -231q0 -205 -168 -320.5t-424 -115.5q-230 0 -410 88l43 92q176 -84 365 -84q209 0 344 92t135 252q0 141 -115.5 213t-283.5 72h-185v94h181q145 0 245.5 75.5 t100.5 217.5q0 119 -102.5 195.5t-274.5 76.5q-109 0 -213.5 -46t-177.5 -120z" />
<glyph unicode="4" horiz-adv-x="1277" d="M72 100l770 1000h133v-1004h244v-96h-244v-334h-113v334h-753zM195 96h667v881z" />
<glyph unicode="5" horiz-adv-x="1159" d="M104 -268l43 92q168 -86 349 -86q201 0 327.5 103.5t126.5 275.5q0 154 -112.5 249t-296.5 95q-115 0 -293 -62l-74 47l23 652h782v-94h-680l-16 -508q156 61 282 61q221 0 360.5 -121t139.5 -319q0 -221 -161 -349t-408 -128q-226 0 -392 92z" />
<glyph unicode="6" horiz-adv-x="1273" d="M127 670q0 207 52 364.5t141.5 246.5t196 133t226.5 44q182 0 334 -67l-47 -91q-139 61 -287 62q-98 0 -184 -38t-158.5 -114.5t-114.5 -212t-42 -313.5q76 88 200.5 146.5t253.5 58.5q205 0 334 -123t129 -326q0 -193 -134 -329t-359 -136q-186 0 -311.5 97.5 t-177.5 248t-52 349.5zM246 586q14 -233 119.5 -373.5t304.5 -140.5q172 0 275.5 108.5t103.5 259.5q0 160 -101.5 258.5t-263.5 98.5q-127 0 -251 -61.5t-187 -149.5z" />
<glyph unicode="7" horiz-adv-x="1169" d="M94 999v99h975v-82l-616 -1352h-125l620 1335h-854z" />
<glyph unicode="8" horiz-adv-x="1329" d="M117 367q0 150 109.5 246t283.5 132q-145 31 -235.5 119t-90.5 217q0 170 136.5 273.5t345 103.5t344 -103.5t135.5 -273.5q0 -129 -90 -217t-234 -119q172 -37 281.5 -133t109.5 -245q0 -182 -152.5 -287t-393.5 -105q-244 0 -396.5 105t-152.5 287zM231 369 q0 -137 122 -218t312.5 -81t311.5 80.5t121 218.5q0 139 -124 222t-308 103q-186 -20 -310.5 -103t-124.5 -222zM301 1081q0 -125 100.5 -201t264.5 -92q164 16 264 93t100 200q0 125 -103.5 204t-261 79t-261 -79t-103.5 -204z" />
<glyph unicode="9" horiz-adv-x="1267" d="M106 655q0 193 134.5 329t359.5 136q279 0 414 -192.5t135 -501.5q0 -207 -52.5 -364.5t-141.5 -246.5t-196.5 -133t-230.5 -44q-198 2 -356 94l53 86q131 -84 303 -84q100 0 186.5 36.5t159 114.5t114.5 212t44 313q-78 -88 -201.5 -145.5t-250.5 -57.5 q-207 0 -340.5 123t-133.5 325zM219 655q0 -158 105.5 -257t267.5 -99q129 0 252 61.5t186 149.5q-16 231 -123.5 372.5t-306.5 141.5q-176 0 -278.5 -107.5t-102.5 -261.5z" />
<glyph unicode=":" d="M150 0v213h124v-213h-124zM150 834v213h124v-213h-124z" />
<glyph unicode=";" d="M72 -221q119 63 118 221h-40v213h124v-190q0 -119 -40.5 -189t-129.5 -110zM150 834v213h124v-213h-124z" />
<glyph unicode="&#x3c;" horiz-adv-x="1306" d="M88 469v109l1086 469v-121l-955 -402l955 -405v-119z" />
<glyph unicode="=" horiz-adv-x="1255" d="M104 227v103h1047v-103h-1047zM104 719v102h1047v-102h-1047z" />
<glyph unicode="&#x3e;" horiz-adv-x="1306" d="M133 0v119l954 405l-954 402v121l1086 -469v-109z" />
<glyph unicode="?" horiz-adv-x="1044" d="M86 1280q172 178 408 178q199 0 318.5 -100.5t119.5 -257.5q0 -86 -33 -156t-82 -111.5t-107.5 -86t-107.5 -81t-83 -96t-34 -133.5v-22h-92q-2 2 -2 32q0 104 44 181.5t106.5 124.5t125 90t106.5 106.5t44 147.5q0 115 -90 189.5t-233 74.5q-186 0 -332 -150zM379 0v203 h123v-203h-123z" />
<glyph unicode="@" horiz-adv-x="1716" d="M141 571.5q0 307.5 218.5 525.5t527.5 218q305 0 497.5 -188.5t192.5 -477.5q0 -225 -118 -359t-271 -134q-90 0 -140.5 49t-54.5 125q-102 -145 -264 -146q-106 0 -170.5 74t-64.5 199q0 188 116.5 350t304.5 162q125 0 205 -105l27 84h82l-144 -506q-29 -96 0 -156.5 t113 -60.5q121 0 214 117t93 307q0 262 -172 427t-446 165q-281 0 -477.5 -195.5t-196.5 -474.5q0 -276 197.5 -472.5t476.5 -196.5q184 0 348 98l41 -61q-178 -109 -389 -109q-309 0 -527.5 217t-218.5 524.5zM586 461q0 -92 42 -146.5t120 -54.5q84 0 156.5 58.5 t103.5 166.5l90 314q-68 92 -180 92q-145 0 -238.5 -139t-93.5 -291z" />
<glyph unicode="A" horiz-adv-x="1388" d="M72 0l551 1434h145l549 -1434h-127l-146 387h-702l-143 -387h-127zM379 483h631l-314 840h-4z" />
<glyph unicode="B" horiz-adv-x="1376" d="M184 0v1434h549q225 0 342 -102.5t117 -262.5q0 -125 -68.5 -210t-181.5 -120q141 -33 224 -120t83 -224q0 -188 -122.5 -291.5t-344.5 -103.5h-598zM299 100h483q168 0 258 77t90 224q0 131 -97 206t-253 75h-481v-582zM299 778h430q170 0 257 81t87 204 q0 119 -87 194.5t-257 75.5h-430v-555z" />
<glyph unicode="C" horiz-adv-x="1458" d="M123 735q0 322 197.5 522.5t515.5 200.5q266 0 456 -143l-63 -88q-170 129 -391 129q-268 0 -433 -171t-165 -450q0 -297 163.5 -477t434.5 -180q250 0 413 153l74 -77q-190 -178 -491 -179q-319 0 -515 209t-196 551z" />
<glyph unicode="D" horiz-adv-x="1449" d="M184 0v1434h389q367 0 561.5 -185.5t194.5 -517.5q0 -350 -190.5 -540.5t-565.5 -190.5h-389zM299 100h281q313 0 472.5 166t159.5 465q0 283 -163.5 442.5t-468.5 159.5h-281v-1233z" />
<glyph unicode="E" horiz-adv-x="1298" d="M184 0v1434h957v-105h-842v-549h760v-98h-760v-578h854v-104h-969z" />
<glyph unicode="F" horiz-adv-x="1259" d="M184 0v1434h940v-105h-825v-557h733v-100h-733v-672h-115z" />
<glyph unicode="G" horiz-adv-x="1482" d="M123 735q0 322 196.5 522.5t516.5 200.5q264 0 460 -125l-59 -86q-172 109 -399 109q-266 0 -431 -172t-165 -449q0 -303 159.5 -480t436.5 -177q227 0 374 94v467h-432v92h541v-618q-207 -137 -485 -138q-328 0 -520.5 206t-192.5 554z" />
<glyph unicode="H" horiz-adv-x="1427" d="M184 0v1434h115v-652h829v652h117v-1434h-117v678h-829v-678h-115z" />
<glyph unicode="I" horiz-adv-x="481" d="M184 0v1434h115v-1434h-115z" />
<glyph unicode="J" horiz-adv-x="1159" d="M111 276l98 48q37 -104 118 -174t208 -70q166 0 248.5 104.5t82.5 282.5v967h117v-967q0 -229 -112.5 -360.5t-331.5 -131.5q-164 0 -271.5 85t-156.5 216z" />
<glyph unicode="K" horiz-adv-x="1357" d="M184 0v1434h115v-867l764 867h141l-471 -533l529 -901h-140l-465 815l-358 -403v-412h-115z" />
<glyph unicode="L" horiz-adv-x="1236" d="M184 0v1434h115v-1330h840v-104h-955z" />
<glyph unicode="M" horiz-adv-x="1730" d="M184 0v1434h138l544 -803l545 803h137v-1434h-112v1282l-570 -831l-569 835v-1286h-113z" />
<glyph unicode="N" horiz-adv-x="1470" d="M184 0v1434h127l863 -1268v1268h112v-1434h-129l-860 1266v-1266h-113z" />
<glyph unicode="O" horiz-adv-x="1654" d="M123 727q0 326 202.5 528.5t501.5 202.5t502 -202.5t203 -528.5q0 -342 -199.5 -547t-505 -205t-505 205t-199.5 547zM242 727q0 -297 166.5 -473t418.5 -176t419 176t167 473q0 281 -169 455t-416.5 174t-416.5 -174t-169 -455z" />
<glyph unicode="P" horiz-adv-x="1341" d="M184 0v1434h555q244 0 358.5 -121t114.5 -295q0 -78 -25.5 -149.5t-78.5 -134t-148.5 -100.5t-222.5 -38h-438v-596h-115zM299 694h438q182 0 271.5 95.5t89.5 226.5q0 133 -87 225t-272 92h-440v-639z" />
<glyph unicode="Q" horiz-adv-x="1673" d="M123 727q0 326 202.5 528.5t501.5 202.5t502 -202.5t203 -528.5q0 -311 -174 -518l194 -166l-67 -72l-193 170q-190 -166 -465 -166q-305 0 -504.5 205t-199.5 547zM242 727q0 -297 166.5 -473t418.5 -176q225 0 383 139l-278 240l65 73l275 -247q141 178 141 444 q0 281 -169 455t-416.5 174t-416.5 -174t-169 -455z" />
<glyph unicode="R" horiz-adv-x="1378" d="M184 0v1434h582q242 0 357.5 -121t115.5 -295q0 -139 -83 -254t-243 -152l320 -612h-129l-301 598h-35h-469v-598h-115zM299 694h463q182 0 271 95.5t89 226.5q0 133 -87 225t-269 92h-467v-639z" />
<glyph unicode="S" horiz-adv-x="1243" d="M117 119l59 92q193 -131 451 -131q186 0 282.5 78t96.5 204q0 90 -48.5 149.5t-124 90.5t-168 53.5t-185.5 49t-168.5 66.5t-124 118t-48.5 190q0 164 128 271.5t347 107.5q246 0 455 -102l-47 -99q-193 96 -404 97q-166 0 -262 -77t-96 -196q0 -90 48 -150.5t124 -90 t169 -52t185.5 -49t168 -65.5t123.5 -118t48 -194q0 -172 -128 -279.5t-371 -107.5q-150 0 -285 41.5t-225 102.5z" />
<glyph unicode="T" horiz-adv-x="1318" d="M63 1329v105h1192v-105h-538v-1329h-115v1329h-539z" />
<glyph unicode="U" horiz-adv-x="1458" d="M178 524v910h117v-910q0 -211 123 -328.5t311.5 -117.5t312 117.5t123.5 328.5v910h117v-910q0 -264 -154.5 -406.5t-398.5 -142.5q-242 0 -396.5 142.5t-154.5 406.5z" />
<glyph unicode="V" horiz-adv-x="1357" d="M72 1434h127l477 -1309h4l479 1309h129l-540 -1434h-140z" />
<glyph unicode="W" horiz-adv-x="2095" d="M74 1434h125l401 -1284h4l383 1284h123l383 -1284h4l401 1284h125l-460 -1434h-133l-381 1272h-5l-378 -1272h-134z" />
<glyph unicode="X" horiz-adv-x="1380" d="M88 0l528 733l-503 701h143l436 -613l434 613h144l-506 -701l528 -733h-145l-457 643l-459 -643h-143z" />
<glyph unicode="Y" horiz-adv-x="1333" d="M70 1434h137l459 -738h4l456 738h138l-539 -846v-588h-117v588z" />
<glyph unicode="Z" horiz-adv-x="1318" d="M123 0v106l915 1223h-913v105h1053v-107l-912 -1221h934v-106h-1077z" />
<glyph unicode="[" horiz-adv-x="749" d="M178 -410v1956h434v-90h-319v-1775h319v-91h-434z" />
<glyph unicode="\" horiz-adv-x="987" d="M-23 1546h117l914 -1956h-117z" />
<glyph unicode="]" horiz-adv-x="749" d="M137 -319h320v1775h-320v90h434v-1956h-434v91z" />
<glyph unicode="^" horiz-adv-x="1073" d="M199 1151l286 354h105l287 -354h-103l-235 244l-242 -244h-98z" />
<glyph unicode="_" horiz-adv-x="1116" d="M0 -25h1116v-104h-1116v104z" />
<glyph unicode="`" horiz-adv-x="1323" d="M477 1440l84 65l285 -346h-80z" />
<glyph unicode="a" horiz-adv-x="1052" d="M106 231q0 324 646 351v186q0 92 -58.5 149.5t-175.5 57.5q-145 0 -330 -94l-47 92q193 98 379 98q174 0 260 -83t86 -222v-561q0 -121 111 -121v-86q-176 0 -213 141q-139 -164 -358 -164q-135 0 -217.5 69.5t-82.5 186.5zM219 238q0 -78 56.5 -125t150.5 -47 q104 0 191.5 45t134.5 114v279q-533 -22 -533 -266z" />
<glyph unicode="b" horiz-adv-x="1187" d="M180 0v1546h113v-645q162 170 346 170q195 0 312.5 -143.5t117.5 -388.5q0 -262 -113.5 -413t-316.5 -151q-193 0 -350 175l-13 -150h-96zM293 246q145 -176 328 -176q160 0 246.5 126t86.5 343q0 203 -90 320.5t-246 117.5q-170 0 -325 -176v-555z" />
<glyph unicode="c" horiz-adv-x="1040" d="M117 537q0 244 134 389t347 145q186 0 324 -102l-62 -82q-117 86 -260 86q-164 0 -266.5 -119t-102.5 -317q0 -215 100.5 -340t268.5 -125q154 0 279 104l67 -74q-150 -127 -348 -127q-217 0 -349 152t-132 410z" />
<glyph unicode="d" horiz-adv-x="1185" d="M119 539q0 248 116.5 390t313.5 142q184 0 346 -170v645h113v-1546h-95l-14 150q-159 -175 -352 -175q-201 0 -314.5 150.5t-113.5 413.5zM231 539q0 -217 88 -343t248 -126q178 0 328 176v555q-158 176 -326 176q-156 0 -247 -118t-91 -320z" />
<glyph unicode="e" horiz-adv-x="1144" d="M119 537q0 242 137 388t350 146q207 0 310.5 -125t103.5 -332q0 -35 -4 -75h-785v-4q0 -221 96.5 -342t284.5 -121q170 0 316 100l55 -80q-166 -117 -375 -117q-238 0 -363.5 148t-125.5 414zM238 623h671v16q1 147 -69 242q-74 100 -232 100q-147 0 -248.5 -96.5 t-121.5 -261.5z" />
<glyph unicode="f" horiz-adv-x="737" d="M51 950v90h195v115q0 403 387 404q74 0 135 -21l-27 -88q-53 14 -106 14q-135 0 -206 -71.5t-71 -235.5v-117h301v-90h-301v-950h-112v950h-195z" />
<glyph unicode="g" horiz-adv-x="1155" d="M80 -156q0 152 192 232q-90 53 -90 149q0 94 94 152q-167 110 -167 311q0 166 120.5 274.5t300.5 108.5q160 0 275 -86q117 88 271 88h20v-92h-13q-143 0 -227 -41q100 -104 100 -250q0 -168 -124.5 -276.5t-301.5 -108.5q-98 0 -188 39q-68 -41 -68 -102 q0 -41 22.5 -66.5t76 -39t100.5 -18.5t137 -9q461 -27 461 -263q0 -133 -129 -204.5t-377 -71.5q-233 0 -359 71.5t-126 202.5zM188 -154q0 -90 97.5 -140t275.5 -50q401 0 402 182q0 88 -98.5 128t-278.5 48q-131 4 -217 27q-80 -25 -130.5 -75t-50.5 -120zM219 690 q0 -129 89 -214t222 -85q135 0 225.5 85t90.5 214q0 125 -91 209t-224.5 84t-222.5 -84t-89 -209z" />
<glyph unicode="h" horiz-adv-x="1167" d="M180 0v1546h113v-657q168 182 381 182q326 0 325 -350v-721h-112v723q0 254 -232 254q-203 0 -362 -186v-791h-113z" />
<glyph unicode="i" horiz-adv-x="473" d="M180 0v1042h113v-1042h-113zM180 1348v165h113v-165h-113z" />
<glyph unicode="j" horiz-adv-x="489" d="M-90 -416l22 92q37 -10 72 -10q193 0 193 264v1112h112v-1108q0 -364 -293 -364h-2q-43 0 -104 14zM197 1348v165h112v-165h-112z" />
<glyph unicode="k" horiz-adv-x="1054" d="M180 0v1546h113v-1077l520 578h133l-315 -342l373 -705h-130l-317 623l-264 -289v-334h-113z" />
<glyph unicode="l" horiz-adv-x="473" d="M180 0v1546h113v-1546h-113z" />
<glyph unicode="m" horiz-adv-x="1804" d="M172 0v1047h102l11 -146q166 170 366 170q219 0 287 -180q172 180 385 180q162 0 237.5 -92t75.5 -256v-723h-114v723q0 254 -219 254q-193 0 -345 -174q6 -43 7 -86v-717h-115v723q0 254 -219 254q-195 0 -346 -178v-799h-113z" />
<glyph unicode="n" horiz-adv-x="1159" d="M172 0v1047h102l11 -156q170 180 383 180q326 0 325 -350v-721h-114v723q0 254 -232 254q-209 0 -362 -191v-786h-113z" />
<glyph unicode="o" horiz-adv-x="1216" d="M119 537q0 240 138 387t353 147t352.5 -147.5t137.5 -386.5q0 -256 -135.5 -409t-354.5 -153q-223 0 -357 153t-134 409zM233 537q0 -213 102.5 -341t274.5 -128q170 0 271.5 128t101.5 341q0 199 -104.5 319.5t-268.5 120.5q-166 0 -271.5 -120.5t-105.5 -319.5z" />
<glyph unicode="p" horiz-adv-x="1185" d="M178 -410v1457h98l13 -150q160 174 348 174q197 0 313.5 -142.5t116.5 -389.5q0 -262 -113.5 -413t-314.5 -151q-192 0 -348 172v-557h-113zM291 246q145 -176 327 -176q160 0 248 126t88 343q0 203 -91 320.5t-247 117.5q-170 0 -325 -176v-555z" />
<glyph unicode="q" horiz-adv-x="1185" d="M119 539q0 248 116.5 390t313.5 142q186 0 346 -174l14 150h99v-1457h-113v557q-158 -172 -348 -172q-201 0 -314.5 150.5t-113.5 413.5zM231 539q0 -217 88 -343t248 -126q178 0 328 176v555q-158 176 -326 176q-156 0 -247 -118t-91 -320z" />
<glyph unicode="r" horiz-adv-x="788" d="M172 0v1047h100l13 -183q121 207 329 207q74 0 127 -16l-22 -109q-59 18 -117 19q-190 0 -317 -220v-745h-113z" />
<glyph unicode="s" horiz-adv-x="931" d="M86 76l53 86q139 -92 328 -92q129 0 196.5 51t67.5 141q0 72 -47 118t-116.5 64.5t-151.5 42t-151.5 49t-117 88t-47.5 156.5q0 131 99.5 211t261.5 80q176 0 338 -78l-45 -88q-143 72 -293 72q-113 0 -180.5 -53.5t-67.5 -139.5q0 -72 47 -116.5t116.5 -62t151.5 -41 t152 -49.5t117 -89.5t47 -159.5q0 -135 -98.5 -213t-278.5 -78q-217 1 -381 101z" />
<glyph unicode="t" horiz-adv-x="757" d="M51 954v93h193v327h112v-327h308v-93h-308v-688q0 -196 162 -196h2q80 0 152 49l47 -78q-98 -66 -209 -66q-266 0 -266 291v688h-193z" />
<glyph unicode="u" horiz-adv-x="1161" d="M168 326v721h113v-723q0 -256 231 -256q207 0 365 190v789h112v-1047h-98l-14 154q-170 -178 -383 -179q-326 1 -326 351z" />
<glyph unicode="v" horiz-adv-x="995" d="M53 1047h121l324 -920h4l323 920h117l-383 -1047h-125z" />
<glyph unicode="w" horiz-adv-x="1632" d="M53 1047h119l303 -912h4l283 912h108l285 -912h4l303 912h117l-358 -1047h-123l-281 891h-4l-278 -891h-123z" />
<glyph unicode="x" horiz-adv-x="1013" d="M68 0l370 528l-352 519h127l295 -439l293 439h127l-350 -519l368 -528h-127l-313 451l-311 -451h-127z" />
<glyph unicode="y" horiz-adv-x="997" d="M41 -401l33 94q66 -27 114 -27q66 0 109 31t72 108l77 203l-393 1039h121l328 -891h4l319 891h119l-465 -1256q-45 -123 -115.5 -172t-173.5 -49q-78 0 -149 29z" />
<glyph unicode="z" horiz-adv-x="1003" d="M111 0v86l637 864h-621v97h760v-89l-635 -864h657v-94h-798z" />
<glyph unicode="{" horiz-adv-x="886" d="M70 504v104h80q106 0 149 48.5t43 154.5v455q0 281 303 280h113v-88h-109q-102 0 -148 -46t-46 -148v-447q0 -221 -166 -260v-2q166 -39 166 -260v-422q0 -102 46 -148.5t148 -46.5h109v-88h-113q-303 0 -303 281v430q0 106 -43 154.5t-149 48.5h-80z" />
<glyph unicode="|" horiz-adv-x="544" d="M219 -410v1956h109v-1956h-109z" />
<glyph unicode="}" horiz-adv-x="886" d="M129 -322h109q102 0 148 46.5t46 148.5v422q0 221 166 260v2q-166 39 -166 260v447q0 102 -46 148t-148 46h-109v88h113q303 0 303 -280v-455q0 -106 43 -154.5t149 -48.5h80v-104h-80q-106 0 -149 -48t-43 -155v-430q0 -281 -303 -281h-113v88z" />
<glyph unicode="~" horiz-adv-x="1163" d="M156 446q0 119 58 189t157 70q70 0 146.5 -57.5t148 -115t127.5 -57.5q61 0 97 47t28 144h88q2 -16 2 -39q0 -121 -57.5 -189.5t-155.5 -68.5q-72 0 -149 57t-147.5 114.5t-125.5 57.5q-61 0 -97 -47t-30 -143h-88q-2 16 -2 38z" />
<glyph unicode="&#xa1;" horiz-adv-x="495" d="M184 70l31 563h64l30 -563v-457h-125v457zM186 844v203h123v-203h-123z" />
<glyph unicode="&#xa2;" horiz-adv-x="1193" d="M100 563q0 248 163 403.5t425 155.5q31 0 45 -2l49 215h82l-51 -225q145 -25 256 -102l-59 -80q-100 68 -224 90l-213 -936q61 -10 117 -10q207 0 340 116l68 -71q-160 -141 -410 -142q-70 0 -131 13l-59 -260h-82l67 276q-178 57 -280.5 204.5t-102.5 354.5zM213 563 q0 -170 78 -291.5t217 -171.5l209 924q-4 0 -13.5 1t-13.5 1q-213 0 -345 -128t-132 -335z" />
<glyph unicode="&#xa3;" horiz-adv-x="1163" d="M84 162q0 80 59.5 133t147.5 53q100 0 235 -94q0 6 1 15.5t1 15.5q0 106 -90 247q-4 4 -4 7h-235v77h184q-86 131 -86 246q0 113 81 186.5t224 73.5q119 0 197 -50t114 -120l-90 -41q-66 119 -217 119q-94 0 -146 -47t-52 -125q0 -98 94 -242h274v-77h-223 q80 -127 80 -246q0 -45 -19 -105q160 -121 269 -120q156 0 149 182h105q8 -131 -53.5 -203t-182.5 -72q-143 0 -326 144q-49 -68 -126.5 -106t-155.5 -38q-96 0 -152.5 53.5t-56.5 133.5zM164 162q0 -47 34 -80t93 -33q57 0 117.5 34t93.5 95q-125 96 -211 96 q-55 0 -91 -32.5t-36 -79.5z" />
<glyph unicode="&#xa4;" horiz-adv-x="1335" d="M133 543q0 205 135 356l-114 123l63 61l115 -125q147 119 335.5 119t336.5 -119l116 125l64 -61l-119 -123q137 -150 137 -356q0 -203 -135 -355l117 -122l-64 -60l-116 123q-147 -119 -336 -119q-190 0 -336 117l-115 -121l-63 60l114 122q-135 152 -135 355zM240 543 q0 -176 126 -302t302 -126q178 0 304 126t126 302q0 178 -126 304t-304 126q-176 0 -302 -126t-126 -304z" />
<glyph unicode="&#xa5;" horiz-adv-x="1153" d="M68 1098h137l368 -512h2l373 512h135l-452 -613h383v-77h-383v-142h383v-76h-383v-190h-115v190h-385v76h385v142h-385v77h385z" />
<glyph unicode="&#xa6;" horiz-adv-x="544" d="M219 344h109v-754h-109v754zM219 705v841h109v-841h-109z" />
<glyph unicode="&#xa7;" horiz-adv-x="1079" d="M145 444q0 129 131 220q-88 72 -88 184q0 127 97.5 196.5t267.5 69.5q213 0 362 -156l-79 -65q-115 129 -287 129q-117 0 -184.5 -44t-67.5 -128q0 -76 65.5 -125t159.5 -79t188.5 -64.5t160 -105.5t65.5 -177q0 -129 -133 -219q88 -72 88 -184q0 -127 -97.5 -197 t-267.5 -70q-211 0 -360 156l78 65q121 -131 286 -131q117 0 184.5 44t67.5 131q0 76 -65.5 125t-159.5 78.5t-187.5 64.5t-159 105.5t-65.5 176.5zM248 457q0 -76 52 -131.5t116.5 -80t165 -59t153.5 -63.5q96 68 96 164q0 76 -52 130t-116.5 79.5t-165 60.5t-153.5 64 q-96 -68 -96 -164z" />
<glyph unicode="&#xa8;" horiz-adv-x="1333" d="M424 1253v133h115v-133h-115zM795 1253v133h114v-133h-114z" />
<glyph unicode="&#xa9;" horiz-adv-x="1779" d="M143 571.5q0 307.5 218.5 525.5t527.5 218t528 -218t219 -525.5t-219 -524.5t-528 -217t-527.5 217t-218.5 524.5zM217 571q0 -276 197.5 -472.5t476.5 -196.5q276 0 474 196.5t198 472.5q0 279 -197 474.5t-475 195.5q-281 0 -477.5 -195.5t-196.5 -474.5zM483 569 q0 178 121 297t301 119q152 0 271 -84l-54 -70q-94 70 -215 70q-143 0 -237.5 -94t-94.5 -238q0 -154 92.5 -245t239.5 -91q139 0 228 82l57 -59q-111 -106 -287 -106q-188 0 -305 114.5t-117 304.5z" />
<glyph unicode="&#xaa;" horiz-adv-x="753" d="M82 868q0 225 446 244v121q0 61 -38.5 98t-118.5 37q-98 0 -230 -65l-35 73q127 68 267 68q123 0 182 -57.5t59 -153.5v-379q0 -82 78 -82v-67q-125 0 -155 92q-90 -109 -242 -109q-96 0 -154.5 49t-58.5 131zM170 872q0 -51 38 -81.5t99 -30.5q139 0 221 100v189 q-358 -15 -358 -177z" />
<glyph unicode="&#xab;" horiz-adv-x="1214" d="M106 524l412 523l80 -64l-369 -459l369 -463l-80 -61zM598 524l412 523l80 -64l-369 -459l369 -463l-80 -61z" />
<glyph unicode="&#xac;" horiz-adv-x="1232" d="M129 997v101h975v-508h-119v407h-856z" />
<glyph unicode="&#xad;" horiz-adv-x="763" d="M96 479v103h574v-103h-574z" />
<glyph unicode="&#xae;" horiz-adv-x="1779" d="M143 571.5q0 307.5 218.5 525.5t527.5 218t528 -218t219 -525.5t-219 -524.5t-528 -217t-527.5 217t-218.5 524.5zM217 571q0 -276 196.5 -471.5t475 -195.5t476.5 196.5t198 470.5q0 279 -198 474.5t-476.5 195.5t-475 -195.5t-196.5 -474.5zM590 172v797h364 q150 0 220.5 -70t70.5 -172q0 -76 -49 -139.5t-147 -85.5l194 -330h-104l-181 320h-276v-320h-92zM682 565h262q106 0 157.5 48.5t51.5 113.5q0 70 -48 117t-157 47h-266v-326z" />
<glyph unicode="&#xaf;" horiz-adv-x="1331" d="M381 1276v86h575v-86h-575z" />
<glyph unicode="&#xb0;" horiz-adv-x="845" d="M102 1141q0 133 95.5 225t226.5 92t225 -92t94 -225q0 -137 -93 -227.5t-226 -90.5t-227.5 91.5t-94.5 226.5zM186 1141q0 -100 70 -169t168 -69t166.5 68.5t68.5 169t-69.5 169t-165.5 68.5q-98 0 -168 -69.5t-70 -167.5z" />
<glyph unicode="&#xb1;" horiz-adv-x="1255" d="M104 0v90h469v414h-469v100h469v443h109v-443h469v-100h-469v-414h469v-90h-1047z" />
<glyph unicode="&#xb2;" horiz-adv-x="671" d="M84 1024v43q-2 98 42 164.5t106.5 100.5t126 61.5t108.5 66.5t45 96.5t-46 93.5t-130 36q-111 0 -195 -89l-57 52q104 109 256 108q123 0 190.5 -56t67.5 -145q0 -72 -44 -123t-106.5 -79.5l-125 -57t-106.5 -78t-44 -120.5h426v-74h-514z" />
<glyph unicode="&#xb3;" horiz-adv-x="667" d="M76 1657q104 100 248 100q113 0 183.5 -52t70.5 -134q0 -123 -125 -166q70 -16 111.5 -59t41.5 -111q0 -104 -86 -163.5t-217 -59.5q-123 0 -221 49l31 69q86 -47 190 -47q94 0 155.5 42t61.5 112q0 63 -50 96t-130 33h-100v70h96q72 0 115 33.5t43 95.5q0 51 -46.5 86 t-123.5 35q-115 0 -199 -84z" />
<glyph unicode="&#xb4;" horiz-adv-x="1323" d="M477 1159l285 346l84 -65l-289 -281h-80z" />
<glyph unicode="&#xb5;" horiz-adv-x="1083" d="M129 -410v1508h115v-795q10 -233 231 -233q207 0 365 188v840h114v-1098h-102l-10 152q-160 -174 -359 -175q-192 1 -243 134l-11 -521h-100z" />
<glyph unicode="&#xb6;" horiz-adv-x="1361" d="M135 1012q0 172 116 297t353 125h563v-1434h-104v1343h-258v-1343h-105v600h-92q-160 0 -271.5 65.5t-156.5 155.5t-45 191z" />
<glyph unicode="&#xb7;" d="M150 418v213h124v-213h-124z" />
<glyph unicode="&#xb8;" horiz-adv-x="1323" d="M508 -391q221 180 256 401h78q-29 -260 -240 -448z" />
<glyph unicode="&#xb9;" horiz-adv-x="559" d="M94 1638l213 107h68v-721h-82v637l-164 -86z" />
<glyph unicode="&#xba;" horiz-adv-x="864" d="M86 1075q0 166 96.5 267.5t247.5 101.5q150 0 246 -101.5t96 -267.5q0 -176 -94 -281.5t-248 -105.5q-156 0 -250 104.5t-94 282.5zM172 1075q0 -143 69.5 -228t188.5 -85q115 0 184.5 85t69.5 228q0 131 -70.5 213t-183.5 82t-185.5 -82t-72.5 -213z" />
<glyph unicode="&#xbb;" horiz-adv-x="1214" d="M125 61l369 463l-369 459l80 64l411 -523l-411 -524zM618 61l369 463l-369 459l80 64l412 -523l-412 -524z" />
<glyph unicode="&#xbc;" horiz-adv-x="1468" d="M104 1331l213 107h68v-721h-82v637l-164 -86zM141 0l1192 1434h101l-1190 -1434h-103zM856 225l381 496h98v-492h117v-69h-117v-160h-82v160h-370zM946 229h307v402z" />
<glyph unicode="&#xbd;" horiz-adv-x="1568" d="M104 1331l213 107h68v-721h-82v637l-164 -86zM141 0l1192 1434h101l-1190 -1434h-103zM1038 0v43q-2 98 42 164.5t106.5 100.5t126 61.5t108.5 66.5t45 96.5t-46 93.5t-130 36q-111 0 -194 -89l-58 52q104 109 256 108q123 0 190.5 -56t67.5 -145q0 -72 -44 -123 t-106.5 -79.5l-125 -57t-106.5 -78t-44 -120.5h426v-74h-514z" />
<glyph unicode="&#xbe;" horiz-adv-x="1484" d="M37 1350q104 100 248 100q113 0 183.5 -52t70.5 -134q0 -123 -125 -166q70 -16 111.5 -59.5t41.5 -110.5q0 -104 -86 -163.5t-217 -59.5q-123 0 -221 49l31 69q86 -47 190 -47q94 0 155.5 42t61.5 112q0 63 -50 96t-130 33h-100v69h96q72 0 115 34t43 95q0 51 -46.5 86 t-123.5 35q-115 0 -199 -84zM156 0l1192 1434h100l-1190 -1434h-102zM877 225l380 496h99v-492h117v-69h-117v-160h-82v160h-371zM967 229h307v402z" />
<glyph unicode="&#xbf;" horiz-adv-x="1005" d="M113 -53q0 86 32.5 155.5t81.5 111.5t107.5 86t108 81t83 96.5t33.5 132.5v23h92q2 -2 2 -33q0 -104 -44 -181t-106.5 -124t-125 -90t-106.5 -106.5t-44 -147.5q0 -115 90.5 -189.5t233.5 -74.5q186 0 332 149l75 -69q-172 -178 -407 -179q-199 0 -318.5 100.5 t-119.5 258.5zM543 844v203h123v-203h-123z" />
<glyph unicode="&#xc0;" horiz-adv-x="1388" d="M72 0l551 1434h145l549 -1434h-127l-146 387h-702l-143 -387h-127zM379 483h631l-314 840h-4zM438 1733l92 69l228 -256h-92z" />
<glyph unicode="&#xc1;" horiz-adv-x="1388" d="M72 0l551 1434h145l549 -1434h-127l-146 387h-702l-143 -387h-127zM379 483h631l-314 840h-4zM631 1546l227 256l92 -69l-229 -187h-90z" />
<glyph unicode="&#xc2;" horiz-adv-x="1388" d="M72 0l551 1434h145l549 -1434h-127l-146 387h-702l-143 -387h-127zM371 1546l262 221h123l262 -221h-84l-238 150h-2l-239 -150h-84zM379 483h631l-314 840h-4z" />
<glyph unicode="&#xc3;" horiz-adv-x="1388" d="M72 0l551 1434h145l549 -1434h-127l-146 387h-702l-143 -387h-127zM379 483h631l-314 840h-4zM412 1565q-12 96 30.5 151.5t116.5 55.5q66 0 146.5 -72t119.5 -72t60.5 33t15.5 88h78q10 -96 -33 -151.5t-117 -55.5q-51 0 -99 36t-90 70.5t-77 34.5q-39 0 -61.5 -31.5 t-14.5 -86.5h-75z" />
<glyph unicode="&#xc4;" horiz-adv-x="1388" d="M72 0l551 1434h145l549 -1434h-127l-146 387h-702l-143 -387h-127zM379 483h631l-314 840h-4zM442 1591v133h115v-133h-115zM831 1591v133h115v-133h-115z" />
<glyph unicode="&#xc5;" horiz-adv-x="1388" d="M72 0l536 1397q-51 25 -82.5 72t-31.5 106q0 82 58 139.5t142 57.5t142.5 -57.5t58.5 -139.5q0 -125 -113 -178l535 -1397h-127l-146 387h-702l-143 -387h-127zM379 483h631l-314 840h-4zM555 1575q0 -59 41 -100t98.5 -41t98.5 41t41 100t-40 99t-99.5 40t-99.5 -40 t-40 -99z" />
<glyph unicode="&#xc6;" horiz-adv-x="2078" d="M68 0l659 1434h1194v-107h-997l161 -545h754v-102h-723l168 -574h651v-106h-745l-111 387h-706l-172 -387h-133zM418 485h633l-242 842h-14z" />
<glyph unicode="&#xc7;" horiz-adv-x="1458" d="M123 735q0 322 197.5 522.5t515.5 200.5q266 0 456 -143l-63 -88q-170 129 -391 129q-268 0 -433 -171t-165 -450q0 -297 163.5 -477t434.5 -180q250 0 413 153l74 -77q-190 -178 -491 -179q-2 0 -8.5 1t-10.5 1q-41 -244 -235 -415l-95 47q207 168 250 373 q-279 33 -445.5 236.5t-166.5 516.5z" />
<glyph unicode="&#xc8;" horiz-adv-x="1298" d="M184 0v1434h957v-105h-842v-549h760v-98h-760v-578h854v-104h-969zM414 1733l92 69l227 -256h-92z" />
<glyph unicode="&#xc9;" horiz-adv-x="1298" d="M184 0v1434h957v-105h-842v-549h760v-98h-760v-578h854v-104h-969zM604 1546l227 256l93 -69l-230 -187h-90z" />
<glyph unicode="&#xca;" horiz-adv-x="1298" d="M184 0v1434h957v-105h-842v-549h760v-98h-760v-578h854v-104h-969zM344 1546l262 221h123l262 -221h-84l-237 150h-2l-240 -150h-84z" />
<glyph unicode="&#xcb;" horiz-adv-x="1298" d="M184 0v1434h957v-105h-842v-549h760v-98h-760v-578h854v-104h-969zM418 1591v133h114v-133h-114zM807 1591v133h115v-133h-115z" />
<glyph unicode="&#xcc;" horiz-adv-x="481" d="M-14 1733l92 69l227 -256h-92zM184 0v1434h115v-1434h-115z" />
<glyph unicode="&#xcd;" horiz-adv-x="481" d="M178 1546l228 256l92 -69l-230 -187h-90zM184 0v1434h115v-1434h-115z" />
<glyph unicode="&#xce;" horiz-adv-x="481" d="M-82 1546l262 221h123l262 -221h-84l-237 150h-2l-240 -150h-84zM184 0v1434h115v-1434h-115z" />
<glyph unicode="&#xcf;" horiz-adv-x="481" d="M-10 1591v133h114v-133h-114zM184 0v1434h115v-1434h-115zM379 1591v133h115v-133h-115z" />
<glyph unicode="&#xd0;" horiz-adv-x="1519" d="M31 678v84h223v672h389q367 0 561.5 -185.5t194.5 -517.5q0 -350 -190.5 -540.5t-565.5 -190.5h-389v678h-223zM369 100h280q313 0 473 166t160 465q0 283 -164 442.5t-469 159.5h-280v-571h469v-84h-469v-578z" />
<glyph unicode="&#xd1;" horiz-adv-x="1470" d="M184 0v1434h127l863 -1268v1268h112v-1434h-129l-860 1266v-1266h-113zM453 1565q-12 96 30.5 151.5t116.5 55.5q66 0 146.5 -72t119.5 -72t60.5 33t15.5 88h78q10 -96 -33 -151.5t-117 -55.5q-51 0 -99 36t-90 70.5t-77 34.5q-39 0 -61.5 -31.5t-14.5 -86.5h-75z" />
<glyph unicode="&#xd2;" horiz-adv-x="1654" d="M123 727q0 326 202.5 528.5t501.5 202.5t502 -202.5t203 -528.5q0 -342 -199.5 -547t-505 -205t-505 205t-199.5 547zM242 727q0 -297 166.5 -473t418.5 -176t419 176t167 473q0 281 -169 455t-416.5 174t-416.5 -174t-169 -455zM573 1733l93 69l227 -256h-92z" />
<glyph unicode="&#xd3;" horiz-adv-x="1654" d="M123 727q0 326 202.5 528.5t501.5 202.5t502 -202.5t203 -528.5q0 -342 -199.5 -547t-505 -205t-505 205t-199.5 547zM242 727q0 -297 166.5 -473t418.5 -176t419 176t167 473q0 281 -169 455t-416.5 174t-416.5 -174t-169 -455zM764 1546l227 256l92 -69l-229 -187h-90z " />
<glyph unicode="&#xd4;" horiz-adv-x="1654" d="M123 727q0 326 202.5 528.5t501.5 202.5t502 -202.5t203 -528.5q0 -342 -199.5 -547t-505 -205t-505 205t-199.5 547zM242 727q0 -297 166.5 -473t418.5 -176t419 176t167 473q0 281 -169 455t-416.5 174t-416.5 -174t-169 -455zM504 1546l262 221h123l262 -221h-84 l-238 150h-2l-239 -150h-84z" />
<glyph unicode="&#xd5;" horiz-adv-x="1654" d="M123 727q0 326 202.5 528.5t501.5 202.5t502 -202.5t203 -528.5q0 -342 -199.5 -547t-505 -205t-505 205t-199.5 547zM242 727q0 -297 166.5 -473t418.5 -176t419 176t167 473q0 281 -169 455t-416.5 174t-416.5 -174t-169 -455zM545 1565q-12 96 30.5 151.5t116.5 55.5 q66 0 147 -72t119.5 -72t60 33t15.5 88h78q10 -96 -33 -151.5t-116 -55.5q-66 0 -146 70.5t-121 70.5q-39 0 -61.5 -31.5t-13.5 -86.5h-76z" />
<glyph unicode="&#xd6;" horiz-adv-x="1654" d="M123 727q0 326 202.5 528.5t501.5 202.5t502 -202.5t203 -528.5q0 -342 -199.5 -547t-505 -205t-505 205t-199.5 547zM242 727q0 -297 166.5 -473t418.5 -176t419 176t167 473q0 281 -169 455t-416.5 174t-416.5 -174t-169 -455zM575 1591v133h115v-133h-115zM965 1591 v133h114v-133h-114z" />
<glyph unicode="&#xd7;" horiz-adv-x="1183" d="M145 125l375 399l-375 400l74 71l371 -397l375 397l73 -71l-374 -400l374 -399l-73 -70l-375 396l-371 -396z" />
<glyph unicode="&#xd8;" horiz-adv-x="1654" d="M123 727q0 326 202.5 528.5t501.5 202.5q231 0 412 -127l133 176l66 -51l-135 -176q229 -207 229 -553q0 -342 -199.5 -547t-505.5 -205q-238 0 -411 125l-131 -174l-66 49l133 175q-229 208 -229 577zM242 727q0 -307 180 -487l752 1003q-147 113 -347 113 q-248 0 -416.5 -174t-168.5 -455zM479 188q150 -111 348 -110q252 0 419 176t167 473q0 287 -180 467z" />
<glyph unicode="&#xd9;" horiz-adv-x="1458" d="M178 524v910h117v-910q0 -211 123 -328.5t311.5 -117.5t312 117.5t123.5 328.5v910h117v-910q0 -264 -154.5 -406.5t-398.5 -142.5q-242 0 -396.5 142.5t-154.5 406.5zM473 1733l92 69l228 -256h-93z" />
<glyph unicode="&#xda;" horiz-adv-x="1458" d="M178 524v910h117v-910q0 -211 123 -328.5t311.5 -117.5t312 117.5t123.5 328.5v910h117v-910q0 -264 -154.5 -406.5t-398.5 -142.5q-242 0 -396.5 142.5t-154.5 406.5zM666 1546l227 256l92 -69l-229 -187h-90z" />
<glyph unicode="&#xdb;" horiz-adv-x="1458" d="M178 524v910h117v-910q0 -211 123 -328.5t311.5 -117.5t312 117.5t123.5 328.5v910h117v-910q0 -264 -154.5 -406.5t-398.5 -142.5q-242 0 -396.5 142.5t-154.5 406.5zM406 1546l262 221h123l262 -221h-84l-238 150h-2l-240 -150h-83z" />
<glyph unicode="&#xdc;" horiz-adv-x="1458" d="M178 524v910h117v-910q0 -211 123 -328.5t311.5 -117.5t312 117.5t123.5 328.5v910h117v-910q0 -264 -154.5 -406.5t-398.5 -142.5q-242 0 -396.5 142.5t-154.5 406.5zM477 1591v133h115v-133h-115zM866 1591v133h115v-133h-115z" />
<glyph unicode="&#xdd;" horiz-adv-x="1333" d="M70 1434h137l459 -738h4l456 738h138l-539 -846v-588h-117v588zM602 1546l227 256l93 -69l-230 -187h-90z" />
<glyph unicode="&#xde;" horiz-adv-x="1337" d="M184 0v1434h115v-281h428q252 0 373 -122t121 -306t-122 -308t-374 -124h-426v-293h-115zM299 391h426q190 0 284.5 96.5t94.5 237.5t-94.5 234.5t-282.5 93.5h-428v-662z" />
<glyph unicode="&#xdf;" horiz-adv-x="1282" d="M178 0v1130q0 201 123 315t320 114q199 0 325.5 -109t126.5 -295q0 -127 -76.5 -223t-218.5 -129v-2q186 -23 291 -132.5t105 -265.5q0 -195 -133.5 -310.5t-335.5 -115.5q-123 0 -216 29l23 98q80 -27 182 -26q158 0 261.5 89t103.5 240.5t-112.5 244.5t-307.5 93h-88 v99h67q168 0 254 90t86 217q0 150 -93 232.5t-244 82.5q-150 0 -240 -88t-90 -248v-1130h-113z" />
<glyph unicode="&#xe0;" horiz-adv-x="1052" d="M106 231q0 324 646 351v186q0 92 -58.5 149.5t-175.5 57.5q-145 0 -330 -94l-47 92q193 98 379 98q174 0 260 -83t86 -222v-561q0 -121 111 -121v-86q-176 0 -213 141q-139 -164 -358 -164q-135 0 -217.5 69.5t-82.5 186.5zM219 238q0 -78 56.5 -125t150.5 -47 q104 0 191.5 45t134.5 114v279q-533 -22 -533 -266zM242 1440l84 65l284 -346h-80z" />
<glyph unicode="&#xe1;" horiz-adv-x="1052" d="M106 231q0 324 646 351v186q0 92 -58.5 149.5t-175.5 57.5q-145 0 -330 -94l-47 92q193 98 379 98q174 0 260 -83t86 -222v-561q0 -121 111 -121v-86q-176 0 -213 141q-139 -164 -358 -164q-135 0 -217.5 69.5t-82.5 186.5zM219 238q0 -78 56.5 -125t150.5 -47 q104 0 191.5 45t134.5 114v279q-533 -22 -533 -266zM471 1159l285 346l84 -65l-289 -281h-80z" />
<glyph unicode="&#xe2;" horiz-adv-x="1052" d="M106 231q0 324 646 351v186q0 92 -58.5 149.5t-175.5 57.5q-145 0 -330 -94l-47 92q193 98 379 98q174 0 260 -83t86 -222v-561q0 -121 111 -121v-86q-176 0 -213 141q-139 -164 -358 -164q-135 0 -217.5 69.5t-82.5 186.5zM219 238q0 -78 56.5 -125t150.5 -47 q104 0 191.5 45t134.5 114v279q-533 -22 -533 -266zM219 1159l258 322h127l258 -322h-86l-233 246h-4l-236 -246h-84z" />
<glyph unicode="&#xe3;" horiz-adv-x="1052" d="M106 231q0 324 646 351v186q0 92 -58.5 149.5t-175.5 57.5q-145 0 -330 -94l-47 92q193 98 379 98q174 0 260 -83t86 -222v-561q0 -121 111 -121v-86q-176 0 -213 141q-139 -164 -358 -164q-135 0 -217.5 69.5t-82.5 186.5zM219 238q0 -78 56.5 -125t150.5 -47 q104 0 191.5 45t134.5 114v279q-533 -22 -533 -266zM258 1227q-10 96 32 151.5t118 55.5q63 0 144 -71t120 -71t60.5 32t15.5 89h75q12 -96 -29.5 -152.5t-117.5 -56.5q-63 0 -144 71t-120 71q-41 0 -62.5 -32t-13.5 -87h-78z" />
<glyph unicode="&#xe4;" horiz-adv-x="1052" d="M106 231q0 324 646 351v186q0 92 -58.5 149.5t-175.5 57.5q-145 0 -330 -94l-47 92q193 98 379 98q174 0 260 -83t86 -222v-561q0 -121 111 -121v-86q-176 0 -213 141q-139 -164 -358 -164q-135 0 -217.5 69.5t-82.5 186.5zM219 238q0 -78 56.5 -125t150.5 -47 q104 0 191.5 45t134.5 114v279q-533 -22 -533 -266zM299 1253v133h115v-133h-115zM670 1253v133h114v-133h-114z" />
<glyph unicode="&#xe5;" horiz-adv-x="1052" d="M106 231q0 324 646 351v186q0 92 -58.5 149.5t-175.5 57.5q-145 0 -330 -94l-47 92q193 98 379 98q174 0 260 -83t86 -222v-561q0 -121 111 -121v-86q-176 0 -213 141q-139 -164 -358 -164q-135 0 -217.5 69.5t-82.5 186.5zM219 238q0 -78 56.5 -125t150.5 -47 q104 0 191.5 45t134.5 114v279q-533 -22 -533 -266zM340 1350q0 82 58.5 139t142.5 57q82 0 140 -57t58 -139t-58 -139.5t-140 -57.5q-84 0 -142.5 57.5t-58.5 139.5zM399 1349.5q0 -59.5 42 -100.5t99.5 -41t98.5 41t41 100.5t-40 100.5t-99.5 41t-100.5 -41t-41 -100.5z " />
<glyph unicode="&#xe6;" horiz-adv-x="1777" d="M106 229q0 96 55.5 166t155 107t205 54t232.5 24v188q0 92 -58.5 149.5t-175.5 57.5q-152 0 -332 -94l-47 92q197 98 379 98q283 0 318 -237q61 113 165.5 175t237.5 62q207 0 310.5 -125t103.5 -332q0 -14 -6 -75h-783q0 -233 99.5 -350t281.5 -117q168 0 314 100 l55 -80q-162 -117 -373 -117q-295 1 -416 228q-59 -96 -169.5 -162t-249.5 -66q-135 0 -218.5 70t-83.5 184zM219 238q0 -78 57.5 -125t149.5 -47q117 0 217 59t143 162q-33 102 -32 215q-535 -18 -535 -264zM872 623h672q4 158 -69.5 258t-231.5 100q-147 0 -249 -96 t-122 -262z" />
<glyph unicode="&#xe7;" horiz-adv-x="1040" d="M117 537q0 244 134 389t347 145q186 0 324 -102l-62 -82q-117 86 -260 86q-164 0 -266.5 -119t-102.5 -317q0 -215 100.5 -340t268.5 -125q154 0 279 104l67 -74q-150 -127 -346 -127q-41 -238 -235 -413l-95 47q207 168 250 373q-184 25 -293.5 172t-109.5 383z" />
<glyph unicode="&#xe8;" horiz-adv-x="1144" d="M119 537q0 242 137 388t350 146q207 0 310.5 -125t103.5 -332q0 -35 -4 -75h-785v-4q0 -221 96.5 -342t284.5 -121q170 0 316 100l55 -80q-166 -117 -375 -117q-238 0 -363.5 148t-125.5 414zM238 623h671q4 158 -69.5 258t-231.5 100q-147 0 -248.5 -96.5t-121.5 -261.5 zM301 1440l84 65l285 -346h-80z" />
<glyph unicode="&#xe9;" horiz-adv-x="1144" d="M119 537q0 242 137 388t350 146q207 0 310.5 -125t103.5 -332q0 -35 -4 -75h-785v-4q0 -221 96.5 -342t284.5 -121q170 0 316 100l55 -80q-166 -117 -375 -117q-238 0 -363.5 148t-125.5 414zM238 623h671q4 158 -69.5 258t-231.5 100q-147 0 -248.5 -96.5t-121.5 -261.5 zM530 1159l285 346l84 -65l-289 -281h-80z" />
<glyph unicode="&#xea;" horiz-adv-x="1144" d="M119 537q0 242 137 388t350 146q207 0 310.5 -125t103.5 -332q0 -35 -4 -75h-785v-4q0 -221 96.5 -342t284.5 -121q170 0 316 100l55 -80q-166 -117 -375 -117q-238 0 -363.5 148t-125.5 414zM238 623h671q4 158 -69.5 258t-231.5 100q-147 0 -248.5 -96.5t-121.5 -261.5 zM281 1159l258 322h127l258 -322h-86l-234 246h-4l-235 -246h-84z" />
<glyph unicode="&#xeb;" horiz-adv-x="1144" d="M119 537q0 242 137 388t350 146q207 0 310.5 -125t103.5 -332q0 -35 -4 -75h-785v-4q0 -221 96.5 -342t284.5 -121q170 0 316 100l55 -80q-166 -117 -375 -117q-238 0 -363.5 148t-125.5 414zM238 623h671q4 158 -69.5 258t-231.5 100q-147 0 -248.5 -96.5t-121.5 -261.5 zM360 1253v133h115v-133h-115zM731 1253v133h115v-133h-115z" />
<glyph unicode="&#xec;" horiz-adv-x="473" d="M-63 1440l83 65l285 -346h-80zM180 0v1042h113v-1042h-113z" />
<glyph unicode="&#xed;" horiz-adv-x="473" d="M168 1159l285 346l84 -65l-289 -281h-80zM180 0v1042h113v-1042h-113z" />
<glyph unicode="&#xee;" horiz-adv-x="473" d="M-84 1159l258 322h127l258 -322h-86l-233 246h-4l-236 -246h-84zM180 0v1042h113v-1042h-113z" />
<glyph unicode="&#xef;" horiz-adv-x="473" d="M-4 1253v133h115v-133h-115zM180 0v1042h113v-1042h-113zM367 1253v133h114v-133h-114z" />
<glyph unicode="&#xf0;" horiz-adv-x="1183" d="M119 469q0 207 119.5 335t316.5 128q205 0 354 -139q-84 238 -286 458l-220 -116l-36 71q123 59 200 105q-106 111 -248 235h142q98 -86 196 -188l197 104l37 -71l-178 -93q352 -389 352 -784q0 -252 -129 -395.5t-344 -143.5q-217 0 -345 135.5t-128 358.5zM233 469 q0 -182 97.5 -290.5t261.5 -108.5t262 117.5t98 322.5q0 68 -18 170q-150 162 -363 162q-156 0 -247 -101.5t-91 -271.5z" />
<glyph unicode="&#xf1;" horiz-adv-x="1159" d="M172 0v1047h102l11 -156q170 180 383 180q326 0 325 -350v-721h-114v723q0 254 -232 254q-209 0 -362 -191v-786h-113zM299 1227q-10 96 32 151.5t118 55.5q63 0 144 -71t120 -71t60.5 32t14.5 89h76q12 -96 -29.5 -152.5t-117.5 -56.5q-63 0 -144 71t-120 71 q-41 0 -62.5 -32t-13.5 -87h-78z" />
<glyph unicode="&#xf2;" horiz-adv-x="1216" d="M119 537q0 240 138 387t353 147t352.5 -147.5t137.5 -386.5q0 -256 -135.5 -409t-354.5 -153q-223 0 -357 153t-134 409zM233 537q0 -213 102.5 -341t274.5 -128q170 0 271.5 128t101.5 341q0 199 -104.5 319.5t-268.5 120.5q-166 0 -271.5 -120.5t-105.5 -319.5z M307 1440l84 65l285 -346h-80z" />
<glyph unicode="&#xf3;" horiz-adv-x="1216" d="M119 537q0 240 138 387t353 147t352.5 -147.5t137.5 -386.5q0 -256 -135.5 -409t-354.5 -153q-223 0 -357 153t-134 409zM233 537q0 -213 102.5 -341t274.5 -128q170 0 271.5 128t101.5 341q0 199 -104.5 319.5t-268.5 120.5q-166 0 -271.5 -120.5t-105.5 -319.5z M539 1159l284 346l84 -65l-289 -281h-79z" />
<glyph unicode="&#xf4;" horiz-adv-x="1216" d="M119 537q0 240 138 387t353 147t352.5 -147.5t137.5 -386.5q0 -256 -135.5 -409t-354.5 -153q-223 0 -357 153t-134 409zM233 537q0 -213 102.5 -341t274.5 -128q170 0 271.5 128t101.5 341q0 199 -104.5 319.5t-268.5 120.5q-166 0 -271.5 -120.5t-105.5 -319.5z M287 1159l258 322h127l258 -322h-86l-234 246h-4l-235 -246h-84z" />
<glyph unicode="&#xf5;" horiz-adv-x="1216" d="M119 537q0 240 138 387t353 147t352.5 -147.5t137.5 -386.5q0 -256 -135.5 -409t-354.5 -153q-223 0 -357 153t-134 409zM233 537q0 -213 102.5 -341t274.5 -128q170 0 271.5 128t101.5 341q0 199 -104.5 319.5t-268.5 120.5q-166 0 -271.5 -120.5t-105.5 -319.5z M326 1227q-10 96 31.5 151.5t117.5 55.5q63 0 144 -71t120 -71t60.5 32t15.5 89h76q12 -96 -30 -152.5t-118 -56.5q-63 0 -144 71t-120 71q-41 0 -62.5 -32t-13.5 -87h-77z" />
<glyph unicode="&#xf6;" horiz-adv-x="1216" d="M119 537q0 240 138 387t353 147t352.5 -147.5t137.5 -386.5q0 -256 -135.5 -409t-354.5 -153q-223 0 -357 153t-134 409zM233 537q0 -213 102.5 -341t274.5 -128q170 0 271.5 128t101.5 341q0 199 -104.5 319.5t-268.5 120.5q-166 0 -271.5 -120.5t-105.5 -319.5z M367 1253v133h114v-133h-114zM737 1253v133h115v-133h-115z" />
<glyph unicode="&#xf7;" horiz-adv-x="1255" d="M104 473v102h1047v-102h-1047zM571 51v185h111v-185h-111zM571 811v186h111v-186h-111z" />
<glyph unicode="&#xf8;" horiz-adv-x="1216" d="M113 -59l141 186q-135 152 -135 410q0 240 138 387t353 147q164 0 289 -92l129 174l66 -51l-136 -174q141 -152 142 -391q0 -256 -135.5 -409t-354.5 -153q-174 0 -297 95l-135 -179zM233 537q0 -197 91 -326l514 684q-94 82 -228 82q-166 0 -271.5 -120.5t-105.5 -319.5 zM373 156q98 -88 237 -88q170 0 271.5 128t101.5 341q0 184 -94 305z" />
<glyph unicode="&#xf9;" horiz-adv-x="1161" d="M168 326v721h113v-723q0 -256 231 -256q207 0 365 190v789h112v-1047h-98l-14 154q-170 -178 -383 -179q-326 1 -326 351zM274 1440l84 65l285 -346h-80z" />
<glyph unicode="&#xfa;" horiz-adv-x="1161" d="M168 326v721h113v-723q0 -256 231 -256q207 0 365 190v789h112v-1047h-98l-14 154q-170 -178 -383 -179q-326 1 -326 351zM512 1159l285 346l84 -65l-289 -281h-80z" />
<glyph unicode="&#xfb;" horiz-adv-x="1161" d="M168 326v721h113v-723q0 -256 231 -256q207 0 365 190v789h112v-1047h-98l-14 154q-170 -178 -383 -179q-326 1 -326 351zM258 1159l258 322h127l258 -322h-86l-233 246h-4l-236 -246h-84z" />
<glyph unicode="&#xfc;" horiz-adv-x="1161" d="M168 326v721h113v-723q0 -256 231 -256q207 0 365 190v789h112v-1047h-98l-14 154q-170 -178 -383 -179q-326 1 -326 351zM338 1253v133h115v-133h-115zM709 1253v133h114v-133h-114z" />
<glyph unicode="&#xfd;" horiz-adv-x="997" d="M41 -401l33 94q66 -27 114 -27q66 0 109 31t72 108l77 203l-393 1039h121l328 -891h4l319 891h119l-465 -1256q-45 -123 -115.5 -172t-173.5 -49q-78 0 -149 29zM432 1159l285 346l84 -65l-289 -281h-80z" />
<glyph unicode="&#xfe;" horiz-adv-x="1187" d="M180 -410v1956h113v-647q162 172 346 172q195 0 312.5 -143.5t117.5 -388.5q0 -262 -113.5 -413t-314.5 -151q-192 0 -348 172v-557h-113zM293 246q147 -178 328 -178q160 0 247.5 127t87.5 344q0 203 -91 320.5t-247 117.5q-170 0 -325 -176v-555z" />
<glyph unicode="&#xff;" horiz-adv-x="997" d="M41 -401l33 94q66 -27 114 -27q66 0 109 31t72 108l77 203l-393 1039h121l328 -891h4l319 891h119l-465 -1256q-45 -123 -115.5 -172t-173.5 -49q-78 0 -149 29zM260 1253v133h115v-133h-115zM631 1253v133h114v-133h-114z" />
<glyph unicode="&#x152;" horiz-adv-x="2523" d="M123 731q0 315 201.5 521t496.5 206q197 0 354.5 -105.5t233.5 -285.5v367h956v-105h-841v-549h760v-100h-760v-576h856v-104h-971v369q-74 -184 -230.5 -289t-357.5 -105q-301 0 -499.5 210t-198.5 546zM240 731q0 -291 165.5 -472t419.5 -181q252 0 418 181t166 472 q0 270 -170 447.5t-414 177.5q-248 0 -416.5 -177.5t-168.5 -447.5z" />
<glyph unicode="&#x153;" horiz-adv-x="2011" d="M119 537q0 240 138 387t353 147q158 0 271.5 -86t158.5 -237q45 152 160 237.5t273 85.5q207 0 311 -125t104 -332q0 -14 -6 -75h-782q0 -227 96 -347t285 -120q168 0 313 100l55 -80q-162 -117 -372 -117q-348 0 -439 328q-45 -154 -156.5 -241t-271.5 -87 q-223 0 -357 153t-134 409zM233 537q0 -213 102.5 -341t274.5 -128q170 0 272.5 128t102.5 341q0 199 -104.5 319.5t-270.5 120.5t-271.5 -120.5t-105.5 -319.5zM1104 623h672q4 158 -70 258t-231 100q-147 0 -249 -97t-122 -261z" />
<glyph unicode="&#x178;" horiz-adv-x="1333" d="M70 1434h137l459 -738h4l456 738h138l-539 -846v-588h-117v588zM416 1591v133h114v-133h-114zM805 1591v133h115v-133h-115z" />
<glyph unicode="&#x2c6;" horiz-adv-x="1337" d="M350 1159l258 322h127l258 -322h-86l-233 246h-4l-236 -246h-84z" />
<glyph unicode="&#x2dc;" horiz-adv-x="1333" d="M385 1227q-10 96 32 151.5t118 55.5q63 0 144 -71t120 -71t60.5 32t14.5 89h76q12 -96 -29.5 -152.5t-117.5 -56.5q-63 0 -144 71t-120 71q-41 0 -62.5 -32t-13.5 -87h-78z" />
<glyph unicode="&#x2000;" horiz-adv-x="901" />
<glyph unicode="&#x2001;" horiz-adv-x="1802" />
<glyph unicode="&#x2002;" horiz-adv-x="901" />
<glyph unicode="&#x2003;" horiz-adv-x="1802" />
<glyph unicode="&#x2004;" horiz-adv-x="600" />
<glyph unicode="&#x2005;" horiz-adv-x="450" />
<glyph unicode="&#x2006;" horiz-adv-x="300" />
<glyph unicode="&#x2007;" horiz-adv-x="300" />
<glyph unicode="&#x2008;" horiz-adv-x="225" />
<glyph unicode="&#x2009;" horiz-adv-x="360" />
<glyph unicode="&#x200a;" horiz-adv-x="100" />
<glyph unicode="&#x2010;" horiz-adv-x="763" d="M96 479v103h574v-103h-574z" />
<glyph unicode="&#x2011;" horiz-adv-x="763" d="M96 479v103h574v-103h-574z" />
<glyph unicode="&#x2012;" horiz-adv-x="763" d="M96 479v103h574v-103h-574z" />
<glyph unicode="&#x2013;" horiz-adv-x="1173" d="M98 479v103h977v-103h-977z" />
<glyph unicode="&#x2014;" horiz-adv-x="1875" d="M98 479v103h1678v-103h-1678z" />
<glyph unicode="&#x2018;" d="M150 948v191q0 119 40.5 188.5t128.5 110.5l33 -56q-119 -63 -119 -221h41v-213h-124z" />
<glyph unicode="&#x2019;" d="M72 999q119 63 118 222h-40v213h124v-191q0 -119 -40.5 -188.5t-129.5 -110.5z" />
<glyph unicode="&#x201a;" d="M72 -221q119 63 118 221h-40v213h124v-190q0 -119 -40.5 -189t-129.5 -110z" />
<glyph unicode="&#x201c;" horiz-adv-x="813" d="M150 948v191q0 119 40.5 188.5t128.5 110.5l33 -56q-119 -63 -119 -221h41v-213h-124zM539 948v191q0 119 41 188.5t129 110.5l32 -56q-119 -63 -118 -221h41v-213h-125z" />
<glyph unicode="&#x201d;" horiz-adv-x="813" d="M72 999q119 63 118 222h-40v213h124v-191q0 -119 -40.5 -188.5t-129.5 -110.5zM461 999q119 63 119 222h-41v213h125v-191q0 -119 -41 -188.5t-129 -110.5z" />
<glyph unicode="&#x201e;" horiz-adv-x="813" d="M72 -221q119 63 118 221h-40v213h124v-190q0 -119 -40.5 -189t-129.5 -110zM461 -221q119 63 119 221h-41v213h125v-190q0 -119 -41 -189t-129 -110z" />
<glyph unicode="&#x2022;" horiz-adv-x="1120" d="M297 524.5q0 108.5 78 185t186.5 76.5t185 -76.5t76.5 -185t-76.5 -185.5t-185 -77t-186.5 77t-78 185.5z" />
<glyph unicode="&#x2026;" horiz-adv-x="1347" d="M150 0v213h124v-213h-124zM612 0v213h125v-213h-125zM1075 0v213h125v-213h-125z" />
<glyph unicode="&#x202f;" horiz-adv-x="360" />
<glyph unicode="&#x2039;" horiz-adv-x="722" d="M106 524l412 523l80 -64l-369 -459l369 -463l-80 -61z" />
<glyph unicode="&#x203a;" horiz-adv-x="722" d="M125 61l369 463l-369 459l80 64l411 -523l-411 -524z" />
<glyph unicode="&#x205f;" horiz-adv-x="450" />
<glyph unicode="&#x20ac;" horiz-adv-x="1275" d="M66 350v80h184q-10 66 -10 127q0 57 8 105h-182v79h200q53 174 198.5 277.5t336.5 103.5q221 0 379 -133l-66 -74q-133 111 -309 111q-150 0 -263.5 -77t-162.5 -212h434v-75h-453q-10 -55 -10 -105q0 -70 12 -127h451v-76h-428q51 -131 162.5 -205.5t259.5 -74.5 q184 0 315 116l78 -65q-160 -147 -397 -148q-190 0 -332.5 99.5t-200.5 273.5h-204z" />
<glyph unicode="&#x2122;" horiz-adv-x="1792" d="M76 1352v82h702v-82h-309v-676h-92v676h-301zM915 676v758h105l268 -361l268 361h105v-758h-90v629l-281 -373l-282 375v-631h-93z" />
<glyph unicode="&#xe000;" horiz-adv-x="1044" d="M0 0v1044h1044v-1044h-1044z" />
</font>
</defs>
</svg>
