<?xml version="1.0" standalone="no"?><!DOCTYPE svg PUBLIC "-//W3C//DTD SVG 1.1//EN" "http://www.w3.org/Graphics/SVG/1.1/DTD/svg11.dtd"><svg t="1564542262165" class="icon" viewBox="0 0 1024 1024" version="1.1" xmlns="http://www.w3.org/2000/svg" p-id="5497" xmlns:xlink="http://www.w3.org/1999/xlink" width="200" height="200"><defs><style type="text/css"></style></defs><path d="M480.153279 16.454785c-260.565823 0-471.855902 211.25987-471.855902 471.854895 0 260.564816 211.290079 471.854895 471.855902 471.854895 260.565823 0 471.854895-211.290079 471.854895-471.854895C952.009181 227.714656 740.720108 16.454785 480.153279 16.454785zM480.153279 897.251529c-225.851774 0-408.941849-183.090075-408.941849-408.941849 0-225.883997 183.090075-408.940842 408.941849-408.940842 225.851774 0 408.941849 183.057852 408.941849 408.940842C889.095128 714.161454 706.005053 897.251529 480.153279 897.251529z" p-id="5498"></path><path d="M577.351408 475.284612c19.045702-9.368786 33.17843-21.68898 42.701281-36.987772 9.275138-15.358203 14.006858-31.578366 14.006858-49.027024 0-18.556318-5.284543-36.401719-15.911025-53.391202-10.569086-17.111325-25.254637-29.706421-43.932797-37.938345-18.736564-8.171506-43.559214-12.287972-74.463921-12.287972L347.62786 285.652297l0 405.286572 154.582947 0c25.744021 0 47.555851-2.273723 65.432468-6.697312 17.694357-4.547446 32.501751-11.241737 44.298325-20.089923 11.796574-8.787768 21.68898-21.380849 29.73663-37.724869 7.987232-16.342006 11.978834-33.91452 11.978834-52.929006 0-23.593148-6.572449-44.052626-19.722381-61.471075C620.727354 494.791503 601.928358 482.53374 577.351408 475.284612zM401.265768 333.544473l80.97998 0c29.118355 0 49.701689 1.811527 61.743962 5.589653 11.92043 3.778126 21.195568 10.751346 27.585757 21.011294 6.514045 10.200537 9.710146 22.088745 9.710146 35.54278 0 14.16193-3.503225 25.990727-10.384811 35.359512-6.943011 9.460419-17.202959 16.189954-30.844289 20.213779-10.321373 3.133669-27.278633 4.699497-51.116472 4.699497l-87.675278 0L401.264762 333.544473zM590.131784 607.626763c-5.406385 9.830982-12.103698 17.324802-20.520903 22.485488-8.232931 5.160686-18.616735 8.847179-30.904707 11.05847-7.064854 1.353359-19.230983 1.966599-36.49436 1.966599L401.265768 643.13732l0-139.283148 93.75935 0c25.741 0 45.523799 2.211291 59.348396 6.727521 13.64133 4.453798 24.393683 12.317174 32.132195 23.468284 7.74254 11.182326 11.613306 24.330245 11.613306 39.445769C598.118009 586.367756 595.414313 597.795781 590.131784 607.626763z" p-id="5499"></path></svg>