<?xml version="1.0" encoding="UTF-8"?>
<svg width="124px" height="124px" viewBox="0 0 124 124" version="1.1" xmlns="http://www.w3.org/2000/svg" xmlns:xlink="http://www.w3.org/1999/xlink">
    <!-- Generator: Sketch 55.2 (78181) - https://sketchapp.com -->
    <title>icon_zhinan</title>
    <desc>Created with Sketch.</desc>
    <defs>
        <circle id="path-1" cx="52" cy="52" r="52"></circle>
        <filter x="-15.4%" y="-13.5%" width="130.8%" height="130.8%" filterUnits="objectBoundingBox" id="filter-2">
            <feOffset dx="0" dy="2" in="SourceAlpha" result="shadowOffsetOuter1"></feOffset>
            <feGaussianBlur stdDeviation="5" in="shadowOffsetOuter1" result="shadowBlurOuter1"></feGaussianBlur>
            <feColorMatrix values="0 0 0 0 0   0 0 0 0 0   0 0 0 0 0  0 0 0 0.0883140297 0" type="matrix" in="shadowBlurOuter1"></feColorMatrix>
        </filter>
        <linearGradient x1="26.2840758%" y1="0%" x2="64.5861037%" y2="91.6597407%" id="linearGradient-3">
            <stop stop-color="#5CB9FC" offset="0%"></stop>
            <stop stop-color="#3A7DEB" offset="100%"></stop>
        </linearGradient>
        <circle id="path-4" cx="47" cy="47" r="47"></circle>
        <radialGradient cx="47.5585938%" cy="63.0045573%" fx="47.5585938%" fy="63.0045573%" r="60.1190476%" gradientTransform="translate(0.475586,0.630046),scale(0.777778,1.000000),rotate(90.000000),translate(-0.475586,-0.630046)" id="radialGradient-6">
            <stop stop-color="#FFFFFF" stop-opacity="0.771716565" offset="0%"></stop>
            <stop stop-color="#51A6F6" stop-opacity="0" offset="100%"></stop>
        </radialGradient>
        <radialGradient cx="47.5585938%" cy="63.0045573%" fx="47.5585938%" fy="63.0045573%" r="86.6621543%" gradientTransform="translate(0.475586,0.630046),scale(0.771429,1.000000),rotate(130.417066),translate(-0.475586,-0.630046)" id="radialGradient-7">
            <stop stop-color="#FFFFFF" stop-opacity="0.58631993" offset="0%"></stop>
            <stop stop-color="#51A6F6" stop-opacity="0" offset="100%"></stop>
        </radialGradient>
        <radialGradient cx="47.5585938%" cy="63.0045573%" fx="47.5585938%" fy="63.0045573%" r="168.930791%" gradientTransform="translate(0.475586,0.630046),scale(0.789474,1.000000),rotate(140.150890),translate(-0.475586,-0.630046)" id="radialGradient-8">
            <stop stop-color="#FFFFFF" stop-opacity="0.58631993" offset="0%"></stop>
            <stop stop-color="#51A6F6" stop-opacity="0" offset="100%"></stop>
        </radialGradient>
    </defs>
    <g id="Page-1" stroke="none" stroke-width="1" fill="none" fill-rule="evenodd">
        <g id="画板" transform="translate(-518.000000, -803.000000)">
            <g id="icon_zhinan" transform="translate(528.000000, 811.000000)">
                <g id="椭圆形">
                    <use fill="black" fill-opacity="1" filter="url(#filter-2)" xlink:href="#path-1"></use>
                    <use fill="#FFFFFF" fill-rule="evenodd" xlink:href="#path-1"></use>
                </g>
                <g id="三角形" transform="translate(5.000000, 5.000000)">
                    <mask id="mask-5" fill="white">
                        <use xlink:href="#path-4"></use>
                    </mask>
                    <use id="蒙版" fill="url(#linearGradient-3)" xlink:href="#path-4"></use>
                    <path d="M64.8882493,14.159499 L106.066591,78.2146969 C108.157156,81.4666872 107.215635,85.7976841 103.963645,87.8882493 C102.834563,88.6140873 101.520603,89 100.178342,89 L17.8216585,89 C13.9556652,89 10.8216585,85.8659932 10.8216585,82 C10.8216585,80.6577387 11.2075711,79.3437782 11.9334092,78.2146969 L53.1117507,14.159499 C55.2023159,10.9075086 59.5333128,9.96598757 62.7853031,12.0565528 C63.6288217,12.5988147 64.3459874,13.3159804 64.8882493,14.159499 Z" fill="url(#radialGradient-6)" mask="url(#mask-5)" transform="translate(59.000000, 47.000000) rotate(90.000000) translate(-59.000000, -47.000000) "></path>
                    <path d="M59.3566119,25.1787727 L86.9973081,67.8244182 C88.1988487,69.6782238 87.6700835,72.1550713 85.816278,73.3566119 C85.1683764,73.7765481 84.412786,74 83.6406961,74 L28.3593039,74 C26.1501649,74 24.3593039,72.209139 24.3593039,70 C24.3593039,69.2279101 24.5827557,68.4723197 25.0026919,67.8244182 L52.6433881,25.1787727 C53.8449287,23.3249671 56.3217762,22.7962019 58.1755818,23.9977426 C58.6479794,24.3039262 59.0504283,24.7063751 59.3566119,25.1787727 Z" fill="url(#radialGradient-7)" mask="url(#mask-5)" transform="translate(56.000000, 47.000000) rotate(90.000000) translate(-56.000000, -47.000000) "></path>
                    <path d="M59.3792763,37.3356994 L71.1112014,55.8597917 C72.2932058,57.7261144 71.7384562,60.1972719 69.8721334,61.3792763 C69.2319312,61.7847377 68.4897231,62 67.7319251,62 L44.2680749,62 C42.0589359,62 40.2680749,60.209139 40.2680749,58 C40.2680749,57.242202 40.4833372,56.4999938 40.8887986,55.8597917 L52.6207237,37.3356994 C53.8027281,35.4693767 56.2738856,34.914627 58.1402083,36.0966314 C58.6397342,36.4129979 59.0629099,36.8361735 59.3792763,37.3356994 Z" fill="url(#radialGradient-8)" mask="url(#mask-5)" transform="translate(56.000000, 47.000000) rotate(90.000000) translate(-56.000000, -47.000000) "></path>
                </g>
            </g>
        </g>
    </g>
</svg>