<?xml version="1.0" encoding="UTF-8"?>
<svg width="496px" height="88px" viewBox="0 0 496 88" version="1.1" xmlns="http://www.w3.org/2000/svg" xmlns:xlink="http://www.w3.org/1999/xlink">
    <!-- Generator: Sketch 55.2 (78181) - https://sketchapp.com -->
    <title>By-UI</title>
    <desc>Created with Sketch.</desc>
    <defs>
        <linearGradient x1="0%" y1="48.5425342%" x2="100%" y2="51.4574658%" id="linearGradient-1">
            <stop stop-color="#61C1FE" offset="0%"></stop>
            <stop stop-color="#3776E9" offset="100%"></stop>
        </linearGradient>
        <linearGradient x1="0%" y1="47.8707336%" x2="100%" y2="50.9247425%" id="linearGradient-2">
            <stop stop-color="#61C1FE" offset="0%"></stop>
            <stop stop-color="#3776E9" offset="100%"></stop>
        </linearGradient>
    </defs>
    <g id="Page-1" stroke="none" stroke-width="1" fill="none" fill-rule="evenodd">
        <g id="画板" transform="translate(-712.000000, -238.000000)" fill="url(#linearGradient-1)" fill-rule="nonzero" stroke="url(#linearGradient-2)" stroke-width="3">
            <path d="M814.141593,313.5 C814.141593,316.650016 813.143815,319.18749 811.14823,321.1125 C809.152645,323.03751 806.52214,324 803.256637,324 L757.539823,324 C754.27432,324 751.643815,323.03751 749.64823,321.1125 C747.652645,319.18749 746.654867,316.650016 746.654867,313.5 C746.654867,310.349984 747.652645,307.81251 749.64823,305.8875 C751.643815,303.96249 754.27432,303 757.539823,303 L786.929204,303 C790.55754,303 792.371681,301.250017 792.371681,297.75 C792.371681,294.249983 790.55754,292.5 786.929204,292.5 L757.539823,292.5 C754.27432,292.5 751.643815,291.53751 749.64823,289.6125 C747.652645,287.68749 746.654867,285.150016 746.654867,282 C746.654867,278.849984 747.652645,276.31251 749.64823,274.3875 C751.643815,272.46249 754.27432,271.5 757.539823,271.5 L786.929204,271.5 C790.55754,271.5 792.371681,269.750017 792.371681,266.25 C792.371681,262.749983 790.55754,261 786.929204,261 L724.884956,261 C721.619453,261 718.988948,260.03751 716.993363,258.1125 C714.997778,256.18749 714,253.650016 714,250.5 C714,247.349984 714.997778,244.81251 716.993363,242.8875 C718.988948,240.96249 721.619453,240 724.884956,240 L803.256637,240 C806.52214,240 809.152645,240.96249 811.14823,242.8875 C813.143815,244.81251 814.141593,247.349984 814.141593,250.5 L814.141593,313.5 Z M735.769912,313.5 C735.769912,316.650016 734.772134,319.18749 732.776549,321.1125 C730.780963,323.03751 728.150459,324 724.884956,324 C721.619453,324 718.988948,323.03751 716.993363,321.1125 C714.997778,319.18749 714,316.650016 714,313.5 L714,282 C714,278.849984 714.997778,276.31251 716.993363,274.3875 C718.988948,272.46249 721.619453,271.5 724.884956,271.5 C728.150459,271.5 730.780963,272.46249 732.776549,274.3875 C734.772134,276.31251 735.769912,278.849984 735.769912,282 L735.769912,313.5 Z M808.699115,313.5 L808.699115,250.5 C808.699115,249.03 808.173014,247.787505 807.120796,246.7725 C806.068579,245.757495 804.780531,245.25 803.256637,245.25 L724.884956,245.25 C723.361062,245.25 722.073014,245.757495 721.020796,246.7725 C719.968579,247.787505 719.442478,249.03 719.442478,250.5 C719.442478,251.97 719.968579,253.212495 721.020796,254.2275 C722.073014,255.242505 723.361062,255.75 724.884956,255.75 L786.929204,255.75 C790.194707,255.75 792.825211,256.71249 794.820796,258.6375 C796.816382,260.56251 797.814159,263.099984 797.814159,266.25 C797.814159,269.400016 796.816382,271.93749 794.820796,273.8625 C792.825211,275.78751 790.194707,276.75 786.929204,276.75 L757.539823,276.75 C756.015929,276.75 754.727881,277.257495 753.675664,278.2725 C752.623446,279.287505 752.097345,280.53 752.097345,282 C752.097345,283.47 752.623446,284.712495 753.675664,285.7275 C754.727881,286.742505 756.015929,287.25 757.539823,287.25 L786.929204,287.25 C790.194707,287.25 792.825211,288.21249 794.820796,290.1375 C796.816382,292.06251 797.814159,294.599984 797.814159,297.75 C797.814159,300.900016 796.816382,303.43749 794.820796,305.3625 C792.825211,307.28751 790.194707,308.25 786.929204,308.25 L757.539823,308.25 C756.015929,308.25 754.727881,308.757495 753.675664,309.7725 C752.623446,310.787505 752.097345,312.03 752.097345,313.5 C752.097345,314.97 752.623446,316.212495 753.675664,317.2275 C754.727881,318.242505 756.015929,318.75 757.539823,318.75 L803.256637,318.75 C804.780531,318.75 806.068579,318.242505 807.120796,317.2275 C808.173014,316.212495 808.699115,314.97 808.699115,313.5 Z M730.327434,313.5 L730.327434,282 C730.327434,280.53 729.801333,279.287505 728.749115,278.2725 C727.696897,277.257495 726.40885,276.75 724.884956,276.75 C723.361062,276.75 722.073014,277.257495 721.020796,278.2725 C719.968579,279.287505 719.442478,280.53 719.442478,282 L719.442478,313.5 C719.442478,314.97 719.968579,316.212495 721.020796,317.2275 C722.073014,318.242505 723.361062,318.75 724.884956,318.75 C726.40885,318.75 727.696897,318.242505 728.749115,317.2275 C729.801333,316.212495 730.327434,314.97 730.327434,313.5 Z M922.99115,252.075 C922.99115,257.255026 920.088525,260.544993 914.283186,261.945 L884.240708,269.505 C879.959271,270.555005 876.185857,271.08 872.920354,271.08 C870.235385,271.08 866.752234,270.555005 862.470796,269.505 L831.557522,261.945 C825.752183,260.544993 822.849558,257.255026 822.849558,252.075 C822.849558,248.854984 823.792911,246.21251 825.679646,244.1475 C827.566381,242.08249 830.142462,241.05 833.407965,241.05 C834.423899,241.05 835.330969,241.154999 836.129204,241.365 L862.253097,248.505 C866.316834,249.625006 869.945117,250.185 873.138053,250.185 C876.258423,250.185 879.886705,249.625006 884.023009,248.505 L909.820354,241.365 C910.618588,241.154999 911.525659,241.05 912.541593,241.05 C915.807096,241.05 918.365035,242.099989 920.215487,244.2 C922.065938,246.30001 922.99115,248.924984 922.99115,252.075 Z M883.80531,313.5 C883.80531,316.650016 882.807532,319.18749 880.811947,321.1125 C878.816362,323.03751 876.185857,324 872.920354,324 C869.654851,324 867.024346,323.03751 865.028761,321.1125 C863.033176,319.18749 862.035398,316.650016 862.035398,313.5 L862.035398,292.5 C862.035398,289.349984 863.033176,286.81251 865.028761,284.8875 C867.024346,282.96249 869.654851,282 872.920354,282 C876.185857,282 878.816362,282.96249 880.811947,284.8875 C882.807532,286.81251 883.80531,289.349984 883.80531,292.5 L883.80531,313.5 Z M917.004425,251.655 C917.004425,250.185 916.478324,248.942505 915.426106,247.9275 C914.373889,246.912495 913.122131,246.405 911.670796,246.405 C911.162829,246.405 910.69115,246.474999 910.255752,246.615 L883.587611,253.86 C883.515044,253.86 881.773468,254.174997 878.362832,254.805 C876.258397,255.225 874.516821,255.435 873.138053,255.435 C871.759285,255.435 870.01771,255.225 867.913274,254.805 C864.502638,254.174997 862.761062,253.86 862.688496,253.86 L835.584956,246.615 C835.149555,246.474999 834.677879,246.405 834.169912,246.405 C832.718577,246.405 831.466819,246.912495 830.414602,247.9275 C829.362384,248.942505 828.836283,250.185 828.836283,251.655 C828.836283,254.385014 830.21503,256.099996 832.972566,256.8 L862.470796,264.255 C862.543363,264.255 864.284939,264.569997 867.695575,265.2 C869.800011,265.620002 871.541586,265.83 872.920354,265.83 C874.299122,265.83 876.040697,265.620002 878.145133,265.2 C881.555769,264.569997 883.297345,264.255 883.369912,264.255 L912.868142,256.8 C915.625678,256.099996 917.004425,254.385014 917.004425,251.655 Z M878.362832,313.5 L878.362832,292.5 C878.362832,291.099993 877.81859,289.875005 876.730088,288.825 C875.641587,287.774995 874.371689,287.25 872.920354,287.25 C871.469019,287.25 870.19912,287.774995 869.110619,288.825 C868.022118,289.875005 867.477876,291.099993 867.477876,292.5 L867.477876,313.5 C867.477876,314.900007 868.022118,316.124995 869.110619,317.175 C870.19912,318.225005 871.469019,318.75 872.920354,318.75 C874.371689,318.75 875.641587,318.225005 876.730088,317.175 C877.81859,316.124995 878.362832,314.900007 878.362832,313.5 Z M988.300885,282 C988.300885,285.150016 987.303107,287.68749 985.307522,289.6125 C983.311937,291.53751 980.681432,292.5 977.415929,292.5 L942.584071,292.5 C939.318568,292.5 936.688063,291.53751 934.692478,289.6125 C932.696893,287.68749 931.699115,285.150016 931.699115,282 C931.699115,278.849984 932.696893,276.31251 934.692478,274.3875 C936.688063,272.46249 939.318568,271.5 942.584071,271.5 L977.415929,271.5 C980.681432,271.5 983.311937,272.46249 985.307522,274.3875 C987.303107,276.31251 988.300885,278.849984 988.300885,282 Z M982.858407,282 C982.858407,280.53 982.332306,279.287505 981.280088,278.2725 C980.227871,277.257495 978.939823,276.75 977.415929,276.75 L942.584071,276.75 C941.060177,276.75 939.772129,277.257495 938.719912,278.2725 C937.667694,279.287505 937.141593,280.53 937.141593,282 C937.141593,283.47 937.667694,284.712495 938.719912,285.7275 C939.772129,286.742505 941.060177,287.25 942.584071,287.25 L977.415929,287.25 C978.939823,287.25 980.227871,286.742505 981.280088,285.7275 C982.332306,284.712495 982.858407,283.47 982.858407,282 Z M1097.15044,313.5 C1097.15044,316.650016 1096.15266,319.18749 1094.15708,321.1125 C1092.16149,323.03751 1089.53099,324 1086.26549,324 L1040.54867,324 C1037.28317,324 1034.65266,323.03751 1032.65708,321.1125 C1030.66149,319.18749 1029.66372,316.650016 1029.66372,313.5 C1029.66372,310.349984 1030.66149,307.81251 1032.65708,305.8875 C1034.65266,303.96249 1037.28317,303 1040.54867,303 L1069.93805,303 C1073.56639,303 1075.38053,301.250017 1075.38053,297.75 L1075.38053,250.5 C1075.38053,247.349984 1076.37831,244.81251 1078.37389,242.8875 C1080.36948,240.96249 1082.99998,240 1086.26549,240 C1089.53099,240 1092.16149,240.96249 1094.15708,242.8875 C1096.15266,244.81251 1097.15044,247.349984 1097.15044,250.5 L1097.15044,313.5 Z M1018.77876,313.5 C1018.77876,316.650016 1017.78098,319.18749 1015.7854,321.1125 C1013.78981,323.03751 1011.15931,324 1007.89381,324 C1004.6283,324 1001.9978,323.03751 1000.00221,321.1125 C998.006627,319.18749 997.00885,316.650016 997.00885,313.5 L997.00885,250.5 C997.00885,247.349984 998.006627,244.81251 1000.00221,242.8875 C1001.9978,240.96249 1004.6283,240 1007.89381,240 C1011.15931,240 1013.78981,240.96249 1015.7854,242.8875 C1017.78098,244.81251 1018.77876,247.349984 1018.77876,250.5 L1018.77876,313.5 Z M1091.70796,313.5 L1091.70796,250.5 C1091.70796,249.03 1091.18186,247.787505 1090.12965,246.7725 C1089.07743,245.757495 1087.78938,245.25 1086.26549,245.25 C1084.74159,245.25 1083.45355,245.757495 1082.40133,246.7725 C1081.34911,247.787505 1080.82301,249.03 1080.82301,250.5 L1080.82301,297.75 C1080.82301,300.900016 1079.82523,303.43749 1077.82965,305.3625 C1075.83406,307.28751 1073.20356,308.25 1069.93805,308.25 L1040.54867,308.25 C1039.02478,308.25 1037.73673,308.757495 1036.68451,309.7725 C1035.6323,310.787505 1035.10619,312.03 1035.10619,313.5 C1035.10619,314.97 1035.6323,316.212495 1036.68451,317.2275 C1037.73673,318.242505 1039.02478,318.75 1040.54867,318.75 L1086.26549,318.75 C1087.78938,318.75 1089.07743,318.242505 1090.12965,317.2275 C1091.18186,316.212495 1091.70796,314.97 1091.70796,313.5 Z M1013.33628,313.5 L1013.33628,250.5 C1013.33628,249.099993 1012.79204,247.875005 1011.70354,246.825 C1010.61504,245.774995 1009.34514,245.25 1007.89381,245.25 C1006.44247,245.25 1005.17257,245.774995 1004.08407,246.825 C1002.99557,247.875005 1002.45133,249.099993 1002.45133,250.5 L1002.45133,313.5 C1002.45133,314.900007 1002.99557,316.124995 1004.08407,317.175 C1005.17257,318.225005 1006.44247,318.75 1007.89381,318.75 C1009.34514,318.75 1010.61504,318.225005 1011.70354,317.175 C1012.79204,316.124995 1013.33628,314.900007 1013.33628,313.5 Z M1206,250.5 C1206,253.650016 1205.00222,256.18749 1203.00664,258.1125 C1201.01105,260.03751 1198.38055,261 1195.11504,261 L1172.25664,261 C1168.6283,261 1166.81416,262.749983 1166.81416,266.25 L1166.81416,282 C1166.81416,285.150016 1165.81638,287.68749 1163.8208,289.6125 C1161.82521,291.53751 1159.19471,292.5 1155.9292,292.5 C1152.6637,292.5 1150.0332,291.53751 1148.03761,289.6125 C1146.04203,287.68749 1145.04425,285.150016 1145.04425,282 L1145.04425,266.25 C1145.04425,262.749983 1143.23011,261 1139.60177,261 L1116.74336,261 C1113.47786,261 1110.84736,260.03751 1108.85177,258.1125 C1106.85618,256.18749 1105.85841,253.650016 1105.85841,250.5 C1105.85841,247.349984 1106.85618,244.81251 1108.85177,242.8875 C1110.84736,240.96249 1113.47786,240 1116.74336,240 L1195.11504,240 C1198.38055,240 1201.01105,240.96249 1203.00664,242.8875 C1205.00222,244.81251 1206,247.349984 1206,250.5 Z M1206,313.5 C1206,316.650016 1205.00222,319.18749 1203.00664,321.1125 C1201.01105,323.03751 1198.38055,324 1195.11504,324 L1116.74336,324 C1113.47786,324 1110.84736,323.03751 1108.85177,321.1125 C1106.85618,319.18749 1105.85841,316.650016 1105.85841,313.5 C1105.85841,310.349984 1106.85618,307.81251 1108.85177,305.8875 C1110.84736,303.96249 1113.47786,303 1116.74336,303 L1195.11504,303 C1198.38055,303 1201.01105,303.96249 1203.00664,305.8875 C1205.00222,307.81251 1206,310.349984 1206,313.5 Z M1200.55752,250.5 C1200.55752,249.03 1200.03142,247.787505 1198.9792,246.7725 C1197.92699,245.757495 1196.63894,245.25 1195.11504,245.25 L1116.74336,245.25 C1115.21947,245.25 1113.93142,245.757495 1112.8792,246.7725 C1111.82699,247.787505 1111.30088,249.03 1111.30088,250.5 C1111.30088,251.97 1111.82699,253.212495 1112.8792,254.2275 C1113.93142,255.242505 1115.21947,255.75 1116.74336,255.75 L1139.60177,255.75 C1142.86727,255.75 1145.49778,256.71249 1147.49336,258.6375 C1149.48895,260.56251 1150.48673,263.099984 1150.48673,266.25 L1150.48673,282 C1150.48673,283.47 1151.01283,284.712495 1152.06504,285.7275 C1153.11726,286.742505 1154.40531,287.25 1155.9292,287.25 C1157.4531,287.25 1158.74115,286.742505 1159.79336,285.7275 C1160.84558,284.712495 1161.37168,283.47 1161.37168,282 L1161.37168,266.25 C1161.37168,263.099984 1162.36946,260.56251 1164.36504,258.6375 C1166.36063,256.71249 1168.99113,255.75 1172.25664,255.75 L1195.11504,255.75 C1196.63894,255.75 1197.92699,255.242505 1198.9792,254.2275 C1200.03142,253.212495 1200.55752,251.97 1200.55752,250.5 Z M1200.55752,313.5 C1200.55752,312.03 1200.03142,310.787505 1198.9792,309.7725 C1197.92699,308.757495 1196.63894,308.25 1195.11504,308.25 L1116.74336,308.25 C1115.21947,308.25 1113.93142,308.757495 1112.8792,309.7725 C1111.82699,310.787505 1111.30088,312.03 1111.30088,313.5 C1111.30088,314.97 1111.82699,316.212495 1112.8792,317.2275 C1113.93142,318.242505 1115.21947,318.75 1116.74336,318.75 L1195.11504,318.75 C1196.63894,318.75 1197.92699,318.242505 1198.9792,317.2275 C1200.03142,316.212495 1200.55752,314.97 1200.55752,313.5 Z" id="By-UI"></path>
        </g>
    </g>
</svg>