<?xml version="1.0" encoding="UTF-8"?>
<svg width="565px" height="100px" viewBox="0 0 565 100" version="1.1" xmlns="http://www.w3.org/2000/svg" xmlns:xlink="http://www.w3.org/1999/xlink">
    <!-- Generator: Sketch 55.2 (78181) - https://sketchapp.com -->
    <title>By-UI</title>
    <desc>Created with Sketch.</desc>
    <defs>
        <linearGradient x1="0%" y1="48.4337066%" x2="100%" y2="51.5662934%" id="linear">
            <stop stop-color="#61C1FE" offset="0%"></stop>
            <stop stop-color="#3776E9" offset="100%"></stop>
        </linearGradient>
        <path d="M3075,319.5 C3075,323.250019 3073.85418,326.270822 3071.5625,328.5625 C3069.27082,330.854178 3066.25002,332 3062.5,332 L3010,332 C3006.24998,332 3003.22918,330.854178 3000.9375,328.5625 C2998.64582,326.270822 2997.5,323.250019 2997.5,319.5 C2997.5,315.749981 2998.64582,312.729178 3000.9375,310.4375 C3003.22918,308.145822 3006.24998,307 3010,307 L3043.75,307 C3047.91669,307 3050,304.916687 3050,300.75 C3050,296.583313 3047.91669,294.5 3043.75,294.5 L3010,294.5 C3006.24998,294.5 3003.22918,293.354178 3000.9375,291.0625 C2998.64582,288.770822 2997.5,285.750019 2997.5,282 C2997.5,278.249981 2998.64582,275.229178 3000.9375,272.9375 C3003.22918,270.645822 3006.24998,269.5 3010,269.5 L3043.75,269.5 C3047.91669,269.5 3050,267.416687 3050,263.25 C3050,259.083313 3047.91669,257 3043.75,257 L2972.5,257 C2968.74998,257 2965.72918,255.854178 2963.4375,253.5625 C2961.14582,251.270822 2960,248.250019 2960,244.5 C2960,240.749981 2961.14582,237.729178 2963.4375,235.4375 C2965.72918,233.145822 2968.74998,232 2972.5,232 L3062.5,232 C3066.25002,232 3069.27082,233.145822 3071.5625,235.4375 C3073.85418,237.729178 3075,240.749981 3075,244.5 L3075,319.5 Z M2985,319.5 C2985,323.250019 2983.85418,326.270822 2981.5625,328.5625 C2979.27082,330.854178 2976.25002,332 2972.5,332 C2968.74998,332 2965.72918,330.854178 2963.4375,328.5625 C2961.14582,326.270822 2960,323.250019 2960,319.5 L2960,282 C2960,278.249981 2961.14582,275.229178 2963.4375,272.9375 C2965.72918,270.645822 2968.74998,269.5 2972.5,269.5 C2976.25002,269.5 2979.27082,270.645822 2981.5625,272.9375 C2983.85418,275.229178 2985,278.249981 2985,282 L2985,319.5 Z M3068.75,319.5 L3068.75,244.5 C3068.75,242.75 3068.14584,241.270839 3066.9375,240.0625 C3065.72916,238.854161 3064.25,238.25 3062.5,238.25 L2972.5,238.25 C2970.75,238.25 2969.27084,238.854161 2968.0625,240.0625 C2966.85416,241.270839 2966.25,242.75 2966.25,244.5 C2966.25,246.25 2966.85416,247.729161 2968.0625,248.9375 C2969.27084,250.145839 2970.75,250.75 2972.5,250.75 L3043.75,250.75 C3047.50002,250.75 3050.52082,251.895822 3052.8125,254.1875 C3055.10418,256.479178 3056.25,259.499981 3056.25,263.25 C3056.25,267.000019 3055.10418,270.020822 3052.8125,272.3125 C3050.52082,274.604178 3047.50002,275.75 3043.75,275.75 L3010,275.75 C3008.25,275.75 3006.77084,276.354161 3005.5625,277.5625 C3004.35416,278.770839 3003.75,280.25 3003.75,282 C3003.75,283.75 3004.35416,285.229161 3005.5625,286.4375 C3006.77084,287.645839 3008.25,288.25 3010,288.25 L3043.75,288.25 C3047.50002,288.25 3050.52082,289.395822 3052.8125,291.6875 C3055.10418,293.979178 3056.25,296.999981 3056.25,300.75 C3056.25,304.500019 3055.10418,307.520822 3052.8125,309.8125 C3050.52082,312.104178 3047.50002,313.25 3043.75,313.25 L3010,313.25 C3008.25,313.25 3006.77084,313.854161 3005.5625,315.0625 C3004.35416,316.270839 3003.75,317.75 3003.75,319.5 C3003.75,321.25 3004.35416,322.729161 3005.5625,323.9375 C3006.77084,325.145839 3008.25,325.75 3010,325.75 L3062.5,325.75 C3064.25,325.75 3065.72916,325.145839 3066.9375,323.9375 C3068.14584,322.729161 3068.75,321.25 3068.75,319.5 Z M2978.75,319.5 L2978.75,282 C2978.75,280.25 2978.14584,278.770839 2976.9375,277.5625 C2975.72916,276.354161 2974.25,275.75 2972.5,275.75 C2970.75,275.75 2969.27084,276.354161 2968.0625,277.5625 C2966.85416,278.770839 2966.25,280.25 2966.25,282 L2966.25,319.5 C2966.25,321.25 2966.85416,322.729161 2968.0625,323.9375 C2969.27084,325.145839 2970.75,325.75 2972.5,325.75 C2974.25,325.75 2975.72916,325.145839 2976.9375,323.9375 C2978.14584,322.729161 2978.75,321.25 2978.75,319.5 Z M3200,246.375 C3200,252.541697 3196.6667,256.458325 3190,258.125 L3155.5,267.125 C3150.58331,268.375006 3146.25002,269 3142.5,269 C3139.41665,269 3135.41669,268.375006 3130.5,267.125 L3095,258.125 C3088.3333,256.458325 3085,252.541697 3085,246.375 C3085,242.541648 3086.08332,239.395846 3088.25,236.9375 C3090.41668,234.479154 3093.37498,233.25 3097.125,233.25 C3098.29167,233.25 3099.33333,233.374999 3100.25,233.625 L3130.25,242.125 C3134.91669,243.45834 3139.08331,244.125 3142.75,244.125 C3146.33335,244.125 3150.49998,243.45834 3155.25,242.125 L3184.875,233.625 C3185.79167,233.374999 3186.83333,233.25 3188,233.25 C3191.75002,233.25 3194.68749,234.499988 3196.8125,237 C3198.93751,239.500012 3200,242.624981 3200,246.375 Z M3155,319.5 C3155,323.250019 3153.85418,326.270822 3151.5625,328.5625 C3149.27082,330.854178 3146.25002,332 3142.5,332 C3138.74998,332 3135.72918,330.854178 3133.4375,328.5625 C3131.14582,326.270822 3130,323.250019 3130,319.5 L3130,294.5 C3130,290.749981 3131.14582,287.729178 3133.4375,285.4375 C3135.72918,283.145822 3138.74998,282 3142.5,282 C3146.25002,282 3149.27082,283.145822 3151.5625,285.4375 C3153.85418,287.729178 3155,290.749981 3155,294.5 L3155,319.5 Z M3193.125,245.875 C3193.125,244.125 3192.52084,242.645839 3191.3125,241.4375 C3190.10416,240.229161 3188.66667,239.625 3187,239.625 C3186.41666,239.625 3185.875,239.708333 3185.375,239.875 L3154.75,248.5 C3154.66667,248.5 3152.66669,248.874996 3148.75,249.625 C3146.33332,250.125 3144.33334,250.375 3142.75,250.375 C3141.16666,250.375 3139.16668,250.125 3136.75,249.625 C3132.83331,248.874996 3130.83333,248.5 3130.75,248.5 L3099.625,239.875 C3099.125,239.708333 3098.58334,239.625 3098,239.625 C3096.33333,239.625 3094.89584,240.229161 3093.6875,241.4375 C3092.47916,242.645839 3091.875,244.125 3091.875,245.875 C3091.875,249.125016 3093.45832,251.166663 3096.625,252 L3130.5,260.875 C3130.58333,260.875 3132.58331,261.249996 3136.5,262 C3138.91668,262.500002 3140.91666,262.75 3142.5,262.75 C3144.08334,262.75 3146.08332,262.500002 3148.5,262 C3152.41669,261.249996 3154.41667,260.875 3154.5,260.875 L3188.375,252 C3191.54168,251.166663 3193.125,249.125016 3193.125,245.875 Z M3148.75,319.5 L3148.75,294.5 C3148.75,292.833325 3148.12501,291.375006 3146.875,290.125 C3145.62499,288.874994 3144.16667,288.25 3142.5,288.25 C3140.83333,288.25 3139.37501,288.874994 3138.125,290.125 C3136.87499,291.375006 3136.25,292.833325 3136.25,294.5 L3136.25,319.5 C3136.25,321.166675 3136.87499,322.624994 3138.125,323.875 C3139.37501,325.125006 3140.83333,325.75 3142.5,325.75 C3144.16667,325.75 3145.62499,325.125006 3146.875,323.875 C3148.12501,322.624994 3148.75,321.166675 3148.75,319.5 Z M3275,282 C3275,285.750019 3273.85418,288.770822 3271.5625,291.0625 C3269.27082,293.354178 3266.25002,294.5 3262.5,294.5 L3222.5,294.5 C3218.74998,294.5 3215.72918,293.354178 3213.4375,291.0625 C3211.14582,288.770822 3210,285.750019 3210,282 C3210,278.249981 3211.14582,275.229178 3213.4375,272.9375 C3215.72918,270.645822 3218.74998,269.5 3222.5,269.5 L3262.5,269.5 C3266.25002,269.5 3269.27082,270.645822 3271.5625,272.9375 C3273.85418,275.229178 3275,278.249981 3275,282 Z M3268.75,282 C3268.75,280.25 3268.14584,278.770839 3266.9375,277.5625 C3265.72916,276.354161 3264.25,275.75 3262.5,275.75 L3222.5,275.75 C3220.75,275.75 3219.27084,276.354161 3218.0625,277.5625 C3216.85416,278.770839 3216.25,280.25 3216.25,282 C3216.25,283.75 3216.85416,285.229161 3218.0625,286.4375 C3219.27084,287.645839 3220.75,288.25 3222.5,288.25 L3262.5,288.25 C3264.25,288.25 3265.72916,287.645839 3266.9375,286.4375 C3268.14584,285.229161 3268.75,283.75 3268.75,282 Z M3400,319.5 C3400,323.250019 3398.85418,326.270822 3396.5625,328.5625 C3394.27082,330.854178 3391.25002,332 3387.5,332 L3335,332 C3331.24998,332 3328.22918,330.854178 3325.9375,328.5625 C3323.64582,326.270822 3322.5,323.250019 3322.5,319.5 C3322.5,315.749981 3323.64582,312.729178 3325.9375,310.4375 C3328.22918,308.145822 3331.24998,307 3335,307 L3368.75,307 C3372.91669,307 3375,304.916687 3375,300.75 L3375,244.5 C3375,240.749981 3376.14582,237.729178 3378.4375,235.4375 C3380.72918,233.145822 3383.74998,232 3387.5,232 C3391.25002,232 3394.27082,233.145822 3396.5625,235.4375 C3398.85418,237.729178 3400,240.749981 3400,244.5 L3400,319.5 Z M3310,319.5 C3310,323.250019 3308.85418,326.270822 3306.5625,328.5625 C3304.27082,330.854178 3301.25002,332 3297.5,332 C3293.74998,332 3290.72918,330.854178 3288.4375,328.5625 C3286.14582,326.270822 3285,323.250019 3285,319.5 L3285,244.5 C3285,240.749981 3286.14582,237.729178 3288.4375,235.4375 C3290.72918,233.145822 3293.74998,232 3297.5,232 C3301.25002,232 3304.27082,233.145822 3306.5625,235.4375 C3308.85418,237.729178 3310,240.749981 3310,244.5 L3310,319.5 Z M3393.75,319.5 L3393.75,244.5 C3393.75,242.75 3393.14584,241.270839 3391.9375,240.0625 C3390.72916,238.854161 3389.25,238.25 3387.5,238.25 C3385.75,238.25 3384.27084,238.854161 3383.0625,240.0625 C3381.85416,241.270839 3381.25,242.75 3381.25,244.5 L3381.25,300.75 C3381.25,304.500019 3380.10418,307.520822 3377.8125,309.8125 C3375.52082,312.104178 3372.50002,313.25 3368.75,313.25 L3335,313.25 C3333.25,313.25 3331.77084,313.854161 3330.5625,315.0625 C3329.35416,316.270839 3328.75,317.75 3328.75,319.5 C3328.75,321.25 3329.35416,322.729161 3330.5625,323.9375 C3331.77084,325.145839 3333.25,325.75 3335,325.75 L3387.5,325.75 C3389.25,325.75 3390.72916,325.145839 3391.9375,323.9375 C3393.14584,322.729161 3393.75,321.25 3393.75,319.5 Z M3303.75,319.5 L3303.75,244.5 C3303.75,242.833325 3303.12501,241.375006 3301.875,240.125 C3300.62499,238.874994 3299.16667,238.25 3297.5,238.25 C3295.83333,238.25 3294.37501,238.874994 3293.125,240.125 C3291.87499,241.375006 3291.25,242.833325 3291.25,244.5 L3291.25,319.5 C3291.25,321.166675 3291.87499,322.624994 3293.125,323.875 C3294.37501,325.125006 3295.83333,325.75 3297.5,325.75 C3299.16667,325.75 3300.62499,325.125006 3301.875,323.875 C3303.12501,322.624994 3303.75,321.166675 3303.75,319.5 Z M3525,244.5 C3525,248.250019 3523.85418,251.270822 3521.5625,253.5625 C3519.27082,255.854178 3516.25002,257 3512.5,257 L3486.25,257 C3482.08331,257 3480,259.083313 3480,263.25 L3480,282 C3480,285.750019 3478.85418,288.770822 3476.5625,291.0625 C3474.27082,293.354178 3471.25002,294.5 3467.5,294.5 C3463.74998,294.5 3460.72918,293.354178 3458.4375,291.0625 C3456.14582,288.770822 3455,285.750019 3455,282 L3455,263.25 C3455,259.083313 3452.91669,257 3448.75,257 L3422.5,257 C3418.74998,257 3415.72918,255.854178 3413.4375,253.5625 C3411.14582,251.270822 3410,248.250019 3410,244.5 C3410,240.749981 3411.14582,237.729178 3413.4375,235.4375 C3415.72918,233.145822 3418.74998,232 3422.5,232 L3512.5,232 C3516.25002,232 3519.27082,233.145822 3521.5625,235.4375 C3523.85418,237.729178 3525,240.749981 3525,244.5 Z M3525,319.5 C3525,323.250019 3523.85418,326.270822 3521.5625,328.5625 C3519.27082,330.854178 3516.25002,332 3512.5,332 L3422.5,332 C3418.74998,332 3415.72918,330.854178 3413.4375,328.5625 C3411.14582,326.270822 3410,323.250019 3410,319.5 C3410,315.749981 3411.14582,312.729178 3413.4375,310.4375 C3415.72918,308.145822 3418.74998,307 3422.5,307 L3512.5,307 C3516.25002,307 3519.27082,308.145822 3521.5625,310.4375 C3523.85418,312.729178 3525,315.749981 3525,319.5 Z M3518.75,244.5 C3518.75,242.75 3518.14584,241.270839 3516.9375,240.0625 C3515.72916,238.854161 3514.25,238.25 3512.5,238.25 L3422.5,238.25 C3420.75,238.25 3419.27084,238.854161 3418.0625,240.0625 C3416.85416,241.270839 3416.25,242.75 3416.25,244.5 C3416.25,246.25 3416.85416,247.729161 3418.0625,248.9375 C3419.27084,250.145839 3420.75,250.75 3422.5,250.75 L3448.75,250.75 C3452.50002,250.75 3455.52082,251.895822 3457.8125,254.1875 C3460.10418,256.479178 3461.25,259.499981 3461.25,263.25 L3461.25,282 C3461.25,283.75 3461.85416,285.229161 3463.0625,286.4375 C3464.27084,287.645839 3465.75,288.25 3467.5,288.25 C3469.25,288.25 3470.72916,287.645839 3471.9375,286.4375 C3473.14584,285.229161 3473.75,283.75 3473.75,282 L3473.75,263.25 C3473.75,259.499981 3474.89582,256.479178 3477.1875,254.1875 C3479.47918,251.895822 3482.49998,250.75 3486.25,250.75 L3512.5,250.75 C3514.25,250.75 3515.72916,250.145839 3516.9375,248.9375 C3518.14584,247.729161 3518.75,246.25 3518.75,244.5 Z M3518.75,319.5 C3518.75,317.75 3518.14584,316.270839 3516.9375,315.0625 C3515.72916,313.854161 3514.25,313.25 3512.5,313.25 L3422.5,313.25 C3420.75,313.25 3419.27084,313.854161 3418.0625,315.0625 C3416.85416,316.270839 3416.25,317.75 3416.25,319.5 C3416.25,321.25 3416.85416,322.729161 3418.0625,323.9375 C3419.27084,325.145839 3420.75,325.75 3422.5,325.75 L3512.5,325.75 C3514.25,325.75 3515.72916,325.145839 3516.9375,323.9375 C3518.14584,322.729161 3518.75,321.25 3518.75,319.5 Z" id="path-2"></path>
    </defs>
    <g id="Page-1" stroke="none" stroke-width="3" fill="url(#linear)" fill-rule="evenodd">
        <g id="logo" transform="translate(-2960.000000, -232.000000)" fill-rule="nonzero">
            <g id="By-UI">
                <use fill="#FFFFFF" xlink:href="#path-2"></use>
                <use fill="url(#linear)" xlink:href="#path-2"></use>
            </g>
        </g>
    </g>
</svg>
