<?xml version="1.0" encoding="UTF-8"?>
<svg width="191px" height="200px" viewBox="0 0 191 200" version="1.1" xmlns="http://www.w3.org/2000/svg" xmlns:xlink="http://www.w3.org/1999/xlink">
    <!-- Generator: Sketch 55.2 (78181) - https://sketchapp.com -->
    <title>zhinan</title>
    <desc>Created with Sketch.</desc>
    <g id="页面1" stroke="none" stroke-width="1" fill="none" fill-rule="evenodd">
        <g id="zhinan" fill-rule="nonzero">
            <path d="M13.4635416,16.6666666 L136.796875,16.6666666 C145.685764,16.6666666 150.130208,21.1111111 150.130208,30 L150.130208,178.333333 C150.130208,187.222222 145.685764,191.666667 136.796875,191.666667 L13.4635416,191.666667 C4.57465267,191.666667 0.130208398,187.222222 0.130208398,178.333333 L0.130208398,30 C0.130208398,21.1111111 4.5746528,16.6666666 13.4635416,16.6666666 Z" id="路径" fill="#4895F2"></path>
            <path d="M15.1302084,25 L135.130208,25 C139.574653,25 141.796875,27.2222222 141.796875,31.6666666 L141.796875,168.333333 C141.796875,172.777778 139.574653,175 135.130208,175 L15.1302084,175 C10.685764,175 8.4635416,172.777778 8.4635416,168.333333 L8.4635416,31.6666666 C8.4635416,27.2222222 10.6857639,25 15.1302084,25 Z" id="路径" fill="#FFFFFF"></path>
            <path d="M50.1802084,85.3833334 C50.846875,84.4833334 51.3802084,83.3666668 51.7802084,82.0333334 C52.1802084,80.7 52.3802084,79.0833334 52.3802084,77.1833334 C52.3802084,75.6166668 52.2052084,74.1 51.8552084,72.6333334 C51.5348375,71.2357665 50.9676109,69.9065938 50.1802084,68.7083334 C49.4176441,67.5622643 48.3881375,66.6185499 47.1802084,65.9583334 C45.7921772,65.2384663 44.2430783,64.885616 42.6802084,64.9333334 C41.1173385,64.885616 39.5682396,65.2384663 38.1802084,65.9583334 C36.9722793,66.6185499 35.9427727,67.5622643 35.1802084,68.7083334 C34.3928059,69.9065938 33.8255793,71.2357665 33.5052084,72.6333334 C32.8164455,75.5684683 32.8164455,78.6231985 33.5052084,81.5583334 C33.8552084,82.975 34.4135418,84.25 35.1802084,85.3833334 C35.946875,86.5166668 36.946875,87.425 38.1802084,88.1083334 C39.5682396,88.8282005 41.1173385,89.1810508 42.6802084,89.1333334 C43.5135418,89.1333334 44.146875,89.1 44.5802084,89.0333334 C45.01523,88.9661927 45.4370249,88.8312183 45.8302084,88.6333334 L43.1052084,86.15 C42.9406559,86.0003002 42.8427885,85.7910216 42.8333973,85.5687619 C42.824006,85.3465023 42.9038706,85.1297139 43.0552084,84.9666666 L45.5635416,82.2833334 C45.8761083,81.953862 46.3949343,81.9353324 46.7302084,82.2416666 L50.1802084,85.3833334 L50.1802084,85.3833334 Z M51.3302084,93.6333334 C48.9635418,95 46.0802084,95.6833334 42.6802084,95.6833334 C39.946875,95.6833334 37.4885418,95.2083334 35.3052084,94.2583334 C33.2013196,93.3650337 31.3162938,92.0258977 29.7802084,90.3333334 C28.2802084,88.6666668 27.1302084,86.7083334 26.3302084,84.4583334 C25.5154044,82.1202374 25.1094685,79.6592511 25.1302084,77.1833334 C25.1302084,74.5166668 25.5302084,72.0416668 26.3302084,69.7583334 C27.0802946,67.5610745 28.2522237,65.5314292 29.7802084,63.7833334 C31.2802084,62.0833334 33.121875,60.75 35.3052084,59.7833334 C37.4885418,58.8166668 39.946875,58.3333334 42.6802084,58.3333334 C45.446875,58.3333334 47.9135418,58.8166668 50.0802084,59.7833334 C52.246875,60.75 54.0802084,62.0833334 55.5802084,63.7833334 C57.0802084,65.4833334 58.2302084,67.475 59.0302084,69.7583334 C59.8302084,72.0416668 60.2302084,74.5166668 60.2302084,77.1833334 C60.2302084,79.7833334 59.8302084,82.2 59.0302084,84.4333334 C58.2679387,86.6024586 57.0967917,88.6052899 55.5802084,90.3333334 L59.396875,93.8083334 C59.5628276,93.9594364 59.6608144,94.1710914 59.6686571,94.3953923 C59.6764998,94.6196932 59.5935352,94.8376751 59.4385416,95 L56.9385416,97.6 C56.6268988,97.9241067 56.1143326,97.9425443 55.7802084,97.6416666 L51.3302084,93.6333334 L51.3302084,93.6333334 Z" id="形状" fill="#FFC13C"></path>
            <path d="M38.3552084,138.56667 L46.6635416,138.56667 C46.7700111,138.564469 46.869022,138.511531 46.9299807,138.424212 C46.9909394,138.336893 47.0065076,138.225703 46.971875,138.125 L42.6885416,125.908333 C42.666061,125.839938 42.6022038,125.793708 42.5302083,125.793708 C42.4582128,125.793708 42.3943556,125.839938 42.371875,125.908333 L38.0385416,138.125 C38.0034584,138.227085 38.0199816,138.339839 38.08288,138.427566 C38.1457784,138.515292 38.2472641,138.56713 38.3552084,138.56667 L38.3552084,138.56667 Z M39.7802084,116.666667 L45.5302084,116.666667 C46.2246134,116.667882 46.8455006,117.099515 47.0885416,117.75 L59.8635416,151.916667 C59.9020668,152.019747 59.8872345,152.135199 59.8239048,152.225194 C59.7605751,152.315189 59.6569095,152.368128 59.546875,152.366696 L52.4802084,152.366696 C52.1219451,152.367591 51.8031851,152.139426 51.6885416,151.8 L49.1802084,144.416667 L35.8302084,144.416667 L33.2302084,151.808333 C33.1127083,152.144469 32.7946153,152.368808 32.4385416,152.366696 L25.6052084,152.366696 C25.4966462,152.365394 25.3955059,152.311329 25.3341389,152.221767 C25.2727719,152.132204 25.2588682,152.018366 25.296875,151.916667 L38.221875,117.75 C38.464916,117.099515 39.0858033,116.667882 39.7802084,116.666667 L39.7802084,116.666667 Z" id="形状" fill="#EDEEF0"></path>
            <path d="M76.796875,66.6666666 L115.130208,66.6666666 C116.241319,66.6666666 116.796875,67.2222222 116.796875,68.3333334 L116.796875,73.3333334 C116.796875,74.4444445 116.241319,75 115.130208,75 L76.796875,75 C75.6857639,75 75.1302084,74.4444445 75.1302084,73.3333334 L75.1302084,68.3333334 C75.1302084,67.2222223 75.6857639,66.6666666 76.796875,66.6666666 Z" id="路径" fill="#EDEEF0"></path>
            <path d="M76.796875,125 L123.463542,125 C124.574653,125 125.130208,125.555556 125.130208,126.666667 L125.130208,131.666667 C125.130208,132.777778 124.574653,133.333333 123.463542,133.333333 L76.796875,133.333333 C75.6857639,133.333333 75.1302084,132.777778 75.1302084,131.666667 L75.1302084,126.666667 C75.1302084,125.555556 75.6857639,125 76.796875,125 L76.796875,125 Z" id="路径" fill="#EDEEF0"></path>
            <path d="M76.796875,83.3333334 L106.796875,83.3333334 C107.907986,83.3333334 108.463542,83.8888889 108.463542,85 L108.463542,90 C108.463542,91.1111111 107.907986,91.6666666 106.796875,91.6666666 L76.796875,91.6666666 C75.6857639,91.6666666 75.1302084,91.1111111 75.1302084,90 L75.1302084,85 C75.1302084,83.8888889 75.6857639,83.3333334 76.796875,83.3333334 Z" id="路径" fill="#EDEEF0"></path>
            <path d="M76.796875,141.666667 L115.130208,141.666667 C116.241319,141.666667 116.796875,142.222222 116.796875,143.333333 L116.796875,148.333333 C116.796875,149.444444 116.241319,150 115.130208,150 L76.796875,150 C75.6857639,150 75.1302084,149.444444 75.1302084,148.333333 L75.1302084,143.333333 C75.1302084,142.222222 75.6857639,141.666667 76.796875,141.666667 Z" id="路径" fill="#EDEEF0"></path>
            <path d="M33.4635416,16.6666666 L116.796875,16.6666666 L116.796875,13.3333334 C116.796875,5.9695367 110.827338,0 103.463542,0 L46.796875,0 C39.4330783,0 33.4635416,5.9695367 33.4635416,13.3333334 L33.4635416,16.6666666 Z M41.796875,25 L41.796875,28.3333334 C41.796875,31.0947571 44.0354513,33.3333334 46.796875,33.3333334 L103.463542,33.3333334 C106.224965,33.3333334 108.463542,31.0947571 108.463542,28.3333334 L108.463542,25 L41.796875,25 Z M33.4635416,16.6666666 L116.796875,16.6666666 L116.796875,28.3333334 C116.796875,35.69713 110.827338,41.6666666 103.463542,41.6666666 L46.796875,41.6666666 C39.4330784,41.6666666 33.4635416,35.69713 33.4635416,28.3333334 L33.4635416,16.6666666 Z" id="形状" fill="#4895F2"></path>
            <path d="M164.353429,172.556554 L164.353429,172.556554 C168.2818,168.628183 172.210171,168.628183 176.138542,172.556554 L187.923655,184.341667 C191.852026,188.270038 191.852026,192.198409 187.923655,196.12678 L187.923655,196.12678 C183.995284,200.055151 180.066913,200.055151 176.138542,196.12678 L164.353429,184.341667 C160.425058,180.413296 160.425058,176.484925 164.353429,172.556554 Z" id="路径" fill="#EDEEF0"></path>
            <path d="M116.796875,158.333333 C116.795963,170.242794 123.149061,181.24798 133.462805,187.202973 C143.776549,193.157967 156.483868,193.157967 166.797612,187.202973 C177.111355,181.24798 183.464453,170.242794 183.463542,158.333333 C183.464453,146.423873 177.111355,135.418687 166.797612,129.463694 C156.483868,123.5087 143.776549,123.5087 133.462805,129.463694 C123.149061,135.418687 116.795963,146.423873 116.796875,158.333333 L116.796875,158.333333 Z" id="路径" fill="#EDEEF0"></path>
            <path d="M133.463542,158.333333 C133.463542,167.538079 140.925462,175 150.130208,175 C159.334954,175 166.796875,167.538079 166.796875,158.333333 C166.796875,149.128588 159.334954,141.666667 150.130208,141.666667 C140.925462,141.666667 133.463542,149.128588 133.463542,158.333333 L133.463542,158.333333 Z" id="路径" fill="#FFFFFF"></path>
            <path d="M177.505208,55.4416666 C182.680208,56.9333332 186.446875,59.5416666 188.780208,63.275 C191.196875,66.9666666 191.696875,71.25 190.305208,76.1083334 C189.188542,80.0083334 187.238542,82.975 184.455208,85.0083334 C183.521875,85.6583334 180.680208,87.1 175.938542,89.325 C174.20317,90.0451263 172.647086,91.1375141 171.380208,92.525 C170.041164,93.897015 169.07702,95.5900073 168.580208,97.4416666 L168.413542,98.0083334 C168.284593,98.4459541 167.827721,98.6985337 167.388542,98.575 L160.421875,96.575 C159.980892,96.4496639 159.723966,95.9916654 159.846875,95.55 L160.013542,94.9833334 C160.896875,91.8916668 162.163542,89.5083334 163.796875,87.8333334 C165.421875,85.9916668 169.380208,83.5416668 175.696875,80.5 L177.488542,79.3666666 C179.538542,77.8666666 180.846875,76.1416666 181.405208,74.1666666 C182.196875,71.4416666 182.046875,69.025 180.971875,66.925 C179.830208,64.8666666 177.788542,63.4166666 174.855208,62.575 C171.221875,61.5333334 168.271875,61.925 166.021875,63.7666666 C164.021875,65.275 162.521875,67.7916666 161.505208,71.3166666 L153.096875,68.9 C154.763542,63.0833334 157.763542,58.975 162.096875,56.5666666 C166.438542,54.1166666 171.571875,53.7416666 177.505208,55.4416666 L177.505208,55.4416666 Z M162.621875,101.891667 C164.388542,102.391667 165.646875,103.333333 166.413542,104.708333 C167.246875,106.041667 167.413542,107.566667 166.921875,109.275 C166.48497,110.85359 165.414078,112.180892 163.963542,112.941667 C162.532224,113.669134 160.875178,113.815432 159.338542,113.35 C157.765034,112.939257 156.431723,111.895533 155.655208,110.466667 C154.862382,109.079964 154.678396,107.427103 155.146875,105.9 C155.520358,104.338846 156.563072,103.021734 157.996875,102.3 C159.416503,101.532704 161.089768,101.384974 162.621875,101.891667 L162.621875,101.891667 Z" id="形状" fill="#5BADFF"></path>
        </g>
    </g>
</svg>