<?xml version="1.0" encoding="UTF-8"?>
<svg width="200px" height="200px" viewBox="0 0 200 200" version="1.1" xmlns="http://www.w3.org/2000/svg" xmlns:xlink="http://www.w3.org/1999/xlink">
    <!-- Generator: Sketch 55.2 (78181) - https://sketchapp.com -->
    <title>zhujian</title>
    <desc>Created with Sketch.</desc>
    <g id="页面1" stroke="none" stroke-width="1" fill="none" fill-rule="evenodd">
        <g id="zhujian" fill-rule="nonzero">
            <polygon id="路径" fill="#4895F2" points="75 116.666667 91.6666666 116.666667 104.166667 159.441667 62.5 159.441667"></polygon>
            <path d="M28.3333334,158.333333 L138.333333,158.333333 C140.555556,158.333333 141.666667,159.444444 141.666667,161.666667 L141.666667,163.333333 C141.666667,165.555556 140.555556,166.666667 138.333333,166.666667 L28.3333334,166.666667 C26.1111111,166.666667 25,165.555556 25,163.333333 L25,161.666667 C25,159.444444 26.1111111,158.333333 28.3333334,158.333333 Z" id="路径" fill="#4895F2"></path>
            <path d="M13.3333334,0 L153.333333,0 C160.69713,0 166.666667,5.96953677 166.666667,13.3333334 L166.666667,120 C166.666667,127.363797 160.69713,133.333333 153.333333,133.333333 L13.3333334,133.333333 C5.9695367,133.333333 0,127.363797 0,120 L0,13.3333334 C0,5.9695367 5.9695367,0 13.3333334,0 Z" id="路径" fill="#4895F2"></path>
            <path d="M15,8.3333334 L151.666667,8.3333334 C153.434777,8.3333334 155.130469,9.03571225 156.380712,10.2859548 C157.630954,11.5361973 158.333333,13.2318901 158.333333,15 L158.333333,118.333333 C158.333333,120.101443 157.630954,121.797136 156.380712,123.047379 C155.130469,124.297621 153.434777,125 151.666667,125 L15,125 C11.3181017,125 8.3333334,122.015232 8.3333334,118.333333 L8.3333334,15 C8.3333334,11.3181017 11.3181017,8.3333334 15,8.3333334 Z" id="路径" fill="#FFFFFF"></path>
            <path d="M110,83.3333334 L115,83.3333334 C116.111111,83.3333334 116.666667,83.8888889 116.666667,85 L116.666667,106.666667 C116.666667,107.777778 116.111111,108.333333 115,108.333333 L110,108.333333 C108.888889,108.333333 108.333333,107.777778 108.333333,106.666667 L108.333333,85 C108.333333,83.8888889 108.888889,83.3333334 110,83.3333334 L110,83.3333334 Z" id="路径" fill="#CACBCC"></path>
            <path d="M93.3333334,91.6666666 L98.3333334,91.6666666 C99.4444445,91.6666666 100,92.2222222 100,93.3333334 L100,106.666667 C100,107.777778 99.4444445,108.333333 98.3333334,108.333333 L93.3333334,108.333333 C92.2222223,108.333333 91.6666666,107.777778 91.6666666,106.666667 L91.6666666,93.3333334 C91.6666666,92.2222223 92.2222222,91.6666666 93.3333334,91.6666666 L93.3333334,91.6666666 Z" id="路径" fill="#CACBCC"></path>
            <path d="M126.666667,91.6666666 L131.666667,91.6666666 C132.777778,91.6666666 133.333333,92.2222222 133.333333,93.3333334 L133.333333,106.666667 C133.333333,107.777778 132.777778,108.333333 131.666667,108.333333 L126.666667,108.333333 C125.555556,108.333333 125,107.777778 125,106.666667 L125,93.3333334 C125,92.2222223 125.555556,91.6666666 126.666667,91.6666666 Z" id="路径" fill="#CACBCC"></path>
            <path d="M68.3333334,75 L73.3333334,75 C74.4444445,75 75,75.5555555 75,76.6666666 L75,106.666667 C75,107.777778 74.4444445,108.333333 73.3333334,108.333333 L68.3333334,108.333333 C67.2222223,108.333333 66.6666666,107.777778 66.6666666,106.666667 L66.6666666,76.6666666 C66.6666666,75.5555555 67.2222222,75 68.3333334,75 L68.3333334,75 Z" id="路径" fill="#CACBCC"></path>
            <path d="M51.6666666,100 L56.6666666,100 C57.7777777,100 58.3333334,100.555556 58.3333334,101.666667 L58.3333334,106.666667 C58.3333334,107.777778 57.7777778,108.333333 56.6666666,108.333333 L51.6666666,108.333333 C50.5555555,108.333333 50,107.777778 50,106.666667 L50,101.666667 C50,100.555556 50.5555555,100 51.6666666,100 L51.6666666,100 Z" id="路径" fill="#CACBCC"></path>
            <path d="M35,91.6666666 L40,91.6666666 C41.1111111,91.6666666 41.6666666,92.2222222 41.6666666,93.3333334 L41.6666666,106.666667 C41.6666666,107.777778 41.1111111,108.333333 40,108.333333 L35,108.333333 C33.8888889,108.333333 33.3333334,107.777778 33.3333334,106.666667 L33.3333334,93.3333334 C33.3333334,92.2222223 33.8888889,91.6666666 35,91.6666666 Z" id="路径" fill="#CACBCC"></path>
            <path d="M54.1666666,25 L54.1666666,45.8333334 L75,45.8333334 C75,57.3392657 65.6725989,66.6666668 54.1666666,66.6666668 C42.6607343,66.6666668 33.3333332,57.3392657 33.3333332,45.8333334 C33.3333332,34.3274011 42.6607343,25 54.1666666,25 Z" id="路径" fill="#5BADFF"></path>
            <path d="M101.666667,33.3333334 L131.666667,33.3333334 C132.583333,33.3333334 133.333333,34.0833334 133.333333,35 L133.333333,40 C133.333333,40.4420275 133.157739,40.8659507 132.845178,41.1785113 C132.532617,41.4910719 132.108694,41.6666666 131.666667,41.6666666 L101.666667,41.6666666 C100.746192,41.6666666 100,40.9204745 100,40 L100,35 C100,34.0833334 100.75,33.3333334 101.666667,33.3333334 L101.666667,33.3333334 Z" id="路径" fill="#EDEEF0"></path>
            <path d="M85,33.3333334 L90,33.3333334 C91.1111111,33.3333334 91.6666666,33.8888889 91.6666666,35 L91.6666666,40 C91.6666666,41.1111111 91.1111111,41.6666666 90,41.6666666 L85,41.6666666 C83.8888889,41.6666666 83.3333334,41.1111111 83.3333334,40 L83.3333334,35 C83.3333334,33.8888889 83.8888889,33.3333334 85,33.3333334 Z" id="路径" fill="#EDEEF0"></path>
            <path d="M101.666667,50 L131.666667,50 C132.583333,50 133.333333,50.75 133.333333,51.6666666 L133.333333,56.6666666 C133.333333,57.1086941 133.157739,57.5326174 132.845178,57.8451781 C132.532617,58.1577387 132.108694,58.3333334 131.666667,58.3333334 L101.666667,58.3333334 C101.224639,58.3333334 100.800716,58.1577386 100.488155,57.845178 C100.175595,57.5326173 100,57.1086941 100,56.6666666 L100,51.6666666 C100,50.75 100.75,50 101.666667,50 L101.666667,50 Z" id="路径" fill="#EDEEF0"></path>
            <path d="M85,50 L90,50 C91.1111111,50 91.6666666,50.5555555 91.6666666,51.6666666 L91.6666666,56.6666666 C91.6666666,57.7777777 91.1111111,58.3333334 90,58.3333334 L85,58.3333334 C83.8888889,58.3333334 83.3333334,57.7777778 83.3333334,56.6666666 L83.3333334,51.6666666 C83.3333334,50.5555555 83.8888889,50 85,50 Z" id="路径" fill="#EDEEF0"></path>
            <path d="M133.333333,166.666667 C133.332422,178.576127 139.68552,189.581313 149.999263,195.536306 C160.313007,201.4913 173.020326,201.4913 183.33407,195.536306 C193.647814,189.581313 200.000912,178.576127 200,166.666667 C200.000912,154.757206 193.647814,143.75202 183.33407,137.797027 C173.020326,131.842033 160.313007,131.842033 149.999263,137.797027 C139.68552,143.75202 133.332422,154.757206 133.333333,166.666667 Z" id="路径" fill="#EDEEF0"></path>
            <path d="M151.666667,162.5 L181.666667,162.5 C182.777778,162.5 183.333333,163.055556 183.333333,164.166667 L183.333333,169.166667 C183.333333,170.277778 182.777778,170.833333 181.666667,170.833333 L151.666667,170.833333 C150.555556,170.833333 150,170.277778 150,169.166667 L150,164.166667 C150,163.055556 150.555556,162.5 151.666667,162.5 Z" id="路径" fill="#FFC13C"></path>
            <path d="M170.833333,151.666667 L170.833333,181.666667 C170.833333,182.777778 170.277778,183.333333 169.166667,183.333333 L164.166667,183.333333 C163.055556,183.333333 162.5,182.777778 162.5,181.666667 L162.5,151.666667 C162.5,150.555556 163.055556,150 164.166667,150 L169.166667,150 C170.277778,150 170.833333,150.555556 170.833333,151.666667 Z" id="路径" fill="#FFC13C"></path>
        </g>
    </g>
</svg>