<?xml version="1.0" encoding="UTF-8"?>
<svg width="200px" height="188px" viewBox="0 0 200 188" version="1.1" xmlns="http://www.w3.org/2000/svg" xmlns:xlink="http://www.w3.org/1999/xlink">
    <!-- Generator: Sketch 55.2 (78181) - https://sketchapp.com -->
    <title>ziyuan</title>
    <desc>Created with Sketch.</desc>
    <g id="页面1" stroke="none" stroke-width="1" fill="none" fill-rule="evenodd">
        <g id="ziyuan" fill-rule="nonzero">
            <path d="M13.3333334,145.833333 L186.666667,145.833333 C194.030463,145.833333 200,151.80287 200,159.166667 L200,187.5 L0,187.5 L0,159.166667 C0,151.80287 5.96953677,145.833333 13.3333334,145.833333 L13.3333334,145.833333 Z" id="路径" fill="#4895F2"></path>
            <path d="M191.666667,159.166667 C191.666667,157.840584 191.139882,156.568815 190.202201,155.631133 C189.264519,154.693451 187.992749,154.166667 186.666667,154.166667 L13.3333334,154.166667 C10.5719096,154.166667 8.3333334,156.405243 8.3333334,159.166667 L8.3333334,179.166667 L191.666667,179.166667 L191.666667,159.166667 L191.666667,159.166667 Z" id="路径" fill="#FFFFFF"></path>
            <path d="M26.6666666,162.5 L90,162.5 C91.1111111,162.5 91.6666666,163.055556 91.6666666,164.166667 L91.6666666,169.166667 C91.6666666,170.277778 91.1111111,170.833333 90,170.833333 L26.6666666,170.833333 C25.5555555,170.833333 25,170.277778 25,169.166667 L25,164.166667 C25,163.055556 25.5555555,162.5 26.6666666,162.5 Z" id="路径" fill="#EDEEF0"></path>
            <path d="M101.666667,162.5 L131.666667,162.5 C132.777778,162.5 133.333333,163.055556 133.333333,164.166667 L133.333333,169.166667 C133.333333,170.277778 132.777778,170.833333 131.666667,170.833333 L101.666667,170.833333 C100.555556,170.833333 100,170.277778 100,169.166667 L100,164.166667 C100,163.055556 100.555556,162.5 101.666667,162.5 Z" id="路径" fill="#EDEEF0"></path>
            <path d="M143.333333,162.5 L156.666667,162.5 C157.777778,162.5 158.333333,163.055556 158.333333,164.166667 L158.333333,169.166667 C158.333333,170.277778 157.777778,170.833333 156.666667,170.833333 L143.333333,170.833333 C142.222222,170.833333 141.666667,170.277778 141.666667,169.166667 L141.666667,164.166667 C141.666667,163.055556 142.222222,162.5 143.333333,162.5 Z" id="路径" fill="#EDEEF0"></path>
            <path d="M168.333333,162.5 L173.333333,162.5 C174.444444,162.5 175,163.055556 175,164.166667 L175,169.166667 C175,170.277778 174.444444,170.833333 173.333333,170.833333 L168.333333,170.833333 C167.222222,170.833333 166.666667,170.277778 166.666667,169.166667 L166.666667,164.166667 C166.666667,163.055556 167.222222,162.5 168.333333,162.5 Z" id="路径" fill="#EDEEF0"></path>
            <path d="M178.333333,20.8333334 C185.69713,20.8333334 191.666667,26.8028701 191.666667,34.1666666 L191.666667,124.166667 C191.666667,131.530463 185.69713,137.5 178.333333,137.5 L88.3333334,137.5 C80.9695367,137.5 75,131.530463 75,124.166667 L75,34.1666666 C75,26.80287 80.9695368,20.8333334 88.3333334,20.8333334 L178.333333,20.8333334 L178.333333,20.8333334 Z" id="路径" fill="#EDEEF0"></path>
            <path d="M143.333333,87.5 L148.333333,87.5 C149.25,87.5 150,88.25 150,89.1666666 L150,137.5 L141.666667,137.5 L141.666667,89.1666666 C141.666667,88.25 142.416667,87.5 143.333333,87.5 L143.333333,87.5 Z M166.666667,20.8333334 L158.333333,20.8333334 L158.333333,44.1666666 C158.333333,45.0833332 159.083333,45.8333334 160,45.8333334 L165,45.8333334 C165.442027,45.8333334 165.865951,45.6577386 166.178511,45.345178 C166.491072,45.0326173 166.666667,44.6086941 166.666667,44.1666666 L166.666667,20.8333334 L166.666667,20.8333334 Z M100,20.8333334 L108.333333,20.8333334 L108.333333,60.8333334 C108.333333,61.2753609 108.157739,61.6992841 107.845178,62.0118447 C107.532617,62.3244053 107.108694,62.5 106.666667,62.5 L101.666667,62.5 C101.224639,62.5 100.800716,62.3244053 100.488155,62.0118447 C100.175595,61.699284 100,61.2753609 100,60.8333334 L100,20.8333334 L100,20.8333334 Z" id="形状" fill="#CACBCC"></path>
            <path d="M126.666667,62.5 L131.666667,62.5 C132.777778,62.5 133.333333,63.0555555 133.333333,64.1666666 L133.333333,127.5 C133.333333,128.611111 132.777778,129.166667 131.666667,129.166667 L126.666667,129.166667 C125.555556,129.166667 125,128.611111 125,127.5 L125,64.1666666 C125,63.0555555 125.555556,62.5 126.666667,62.5 Z" id="路径" fill="#CACBCC"></path>
            <path d="M101.666667,87.5 L106.666667,87.5 C107.777778,87.5 108.333333,88.0555555 108.333333,89.1666666 L108.333333,119.166667 C108.333333,120.277778 107.777778,120.833333 106.666667,120.833333 L101.666667,120.833333 C100.555556,120.833333 100,120.277778 100,119.166667 L100,89.1666666 C100,88.0555555 100.555556,87.5 101.666667,87.5 L101.666667,87.5 Z" id="路径" fill="#CACBCC"></path>
            <path d="M98.3333334,112.5 L93.3333334,112.5 C92.8913059,112.5 92.4673827,112.675595 92.154822,112.988155 C91.8422614,113.300716 91.6666666,113.724639 91.6666666,114.166667 L91.6666666,137.5 L100,137.5 L100,114.166667 C100,113.246192 99.2538079,112.5 98.3333334,112.5 L98.3333334,112.5 Z" id="路径" fill="#CACBCC"></path>
            <path d="M93.3333334,112.5 L106.666667,112.5 C107.777778,112.5 108.333333,113.055556 108.333333,114.166667 L108.333333,119.166667 C108.333333,120.277778 107.777778,120.833333 106.666667,120.833333 L93.3333334,120.833333 C92.2222223,120.833333 91.6666666,120.277778 91.6666666,119.166667 L91.6666666,114.166667 C91.6666666,113.055556 92.2222222,112.5 93.3333334,112.5 Z" id="路径" fill="#CACBCC"></path>
            <path d="M143.333333,87.5 L165,87.5 C166.111111,87.5 166.666667,88.0555555 166.666667,89.1666666 L166.666667,94.1666666 C166.666667,95.2777777 166.111111,95.8333334 165,95.8333334 L143.333333,95.8333334 C142.222222,95.8333334 141.666667,95.2777778 141.666667,94.1666666 L141.666667,89.1666666 C141.666667,88.0555555 142.222222,87.5 143.333333,87.5 L143.333333,87.5 Z" id="路径" fill="#CACBCC"></path>
            <path d="M75,54.1666666 L106.666667,54.1666666 C107.583333,54.1666666 108.333333,54.9166666 108.333333,55.8333334 L108.333333,60.8333334 C108.333333,61.2753609 108.157739,61.6992841 107.845178,62.0118447 C107.532617,62.3244053 107.108694,62.5 106.666667,62.5 L75,62.5 L75,54.1666666 L75,54.1666666 Z M126.666667,62.5 L191.666667,62.5 L191.666667,70.8333334 L126.666667,70.8333334 C126.224639,70.8333334 125.800716,70.6577386 125.488155,70.345178 C125.175595,70.0326173 125,69.6086941 125,69.1666666 L125,64.1666666 C125,63.25 125.75,62.5 126.666667,62.5 L126.666667,62.5 Z" id="形状" fill="#CACBCC"></path>
            <path d="M158.333333,91.6666666 C158.333333,98.570226 163.929774,104.166667 170.833333,104.166667 C177.736893,104.166667 183.333333,98.570226 183.333333,91.6666666 C183.333333,84.7631072 177.736893,79.1666666 170.833333,79.1666666 C163.929774,79.1666666 158.333333,84.7631072 158.333333,91.6666666 Z" id="路径" fill="#5BADFF"></path>
            <path d="M91.6666666,91.6666666 C91.6666666,98.570226 97.2631072,104.166667 104.166667,104.166667 C111.070226,104.166667 116.666667,98.570226 116.666667,91.6666666 C116.666667,84.7631072 111.070226,79.1666666 104.166667,79.1666666 C97.2631072,79.1666666 91.6666666,84.7631072 91.6666666,91.6666666 Z" id="路径" fill="#CACBCC"></path>
            <path d="M150,41.6666666 C150,48.570226 155.596441,54.1666666 162.5,54.1666666 C169.403559,54.1666666 175,48.570226 175,41.6666666 C175,34.7631072 169.403559,29.1666666 162.5,29.1666666 C155.596441,29.1666666 150,34.7631072 150,41.6666666 Z" id="路径" fill="#CACBCC"></path>
            <polygon id="路径" fill="#4895F2" points="62.8333334 6.4333334 56.0833334 1.5333334 10.1666666 50.5666666 23.65 60.3666666"></polygon>
            <polygon id="路径" fill="#4895F2" points="31.5 53.5333334 15.475 58.125 30.3583334 110.033333 59.8416666 106.091667"></polygon>
            <polygon id="路径" fill="#FFFFFF" points="53.5416666 105.608333 34.5416666 105.608333 20.8333334 61.1666666 29.1666666 58.3333334"></polygon>
            <path d="M51.6666666,8.3333334 C51.6666666,12.9357063 55.397627,16.6666668 60,16.6666668 C64.602373,16.6666668 68.3333334,12.9357063 68.3333334,8.3333334 C68.3333334,5.35612007 66.7450091,2.60506146 64.1666666,1.11645477 C61.5883244,-0.372151921 58.4116756,-0.372151921 55.8333332,1.11645477 C53.2549909,2.60506146 51.6666666,5.35612007 51.6666666,8.3333334 Z" id="路径" fill="#4895F2"></path>
            <path d="M8.3333334,50 C8.3333334,56.9035594 13.929774,62.5 20.8333334,62.5 C27.7368928,62.5 33.3333334,56.9035594 33.3333334,50 C33.3333334,43.0964406 27.7368928,37.5 20.8333334,37.5 C13.929774,37.5 8.3333334,43.0964406 8.3333334,50 Z" id="路径" fill="#4895F2"></path>
            <path d="M12.4999999,50 C12.4995442,52.9775171 14.0877688,55.7290514 16.6662983,57.2179416 C19.2448278,58.7068317 22.4218388,58.7068317 25.0003683,57.2179416 C27.5788978,55.7290514 29.1671224,52.9775171 29.1666667,50 C29.1671224,47.0224829 27.5788978,44.2709486 25.0003683,42.7820584 C22.4218388,41.2931683 19.2448278,41.2931683 16.6662983,42.7820584 C14.0877688,44.2709486 12.4995442,47.0224829 12.4999999,50 Z" id="路径" fill="#FFFFFF"></path>
            <path d="M86.6666666,60.275 C88.9655519,60.1530371 90.7302962,58.190552 90.6083333,55.8916667 C90.4863704,53.5927814 88.5238853,51.8280371 86.225,51.95 C77.8100695,52.3901841 69.9585912,47.7179102 66.3317988,40.1119129 C62.7050065,32.5059157 64.0171595,23.4641177 69.656386,17.2028126 C75.2956125,10.9415075 84.1513249,8.6937946 92.0940036,11.5078081 C100.036682,14.3218217 105.502099,21.6433707 105.941667,30.0583334 C106.061328,32.3572186 108.021948,34.1238283 110.320833,34.0041666 C112.619719,33.8845049 114.386328,31.9238852 114.266667,29.625 C113.650522,17.8439637 105.998137,7.59419685 94.8779706,3.65537008 C83.7578044,-0.283456691 71.359909,2.86438546 63.4656701,11.630995 C55.5714312,20.3976045 53.7355728,33.0564491 58.8141924,43.704457 C63.892812,54.352465 74.8857051,60.8925737 86.6666666,60.275 L86.6666666,60.275 Z" id="路径" fill="#4895F2"></path>
            <path d="M85.175,42.4416666 C85.175,49.345226 90.7714406,54.9416666 97.675,54.9416666 C104.578559,54.9416666 110.175,49.345226 110.175,42.4416666 C110.175,35.5381072 104.578559,29.9416666 97.675,29.9416666 C90.7714406,29.9416666 85.175,35.5381072 85.175,42.4416666 Z" id="路径" fill="#FFC13C"></path>
            <path d="M23.3333334,104.166667 L60,104.166667 C61.7681099,104.166667 63.4638027,104.869046 64.7140452,106.119288 C65.9642877,107.369531 66.6666666,109.065223 66.6666666,110.833333 L66.6666666,145.833333 L16.6666666,145.833333 L16.6666666,110.833333 C16.6666666,109.065223 17.3690455,107.369531 18.619288,106.119288 C19.8695306,104.869045 21.5652234,104.166667 23.3333334,104.166667 Z" id="路径" fill="#4895F2"></path>
            <path d="M28.3333334,129.166667 L38.3333334,129.166667 C40.5555557,129.166667 41.6666666,130.277778 41.6666666,132.5 L41.6666666,134.166667 C41.6666666,136.388889 40.5555555,137.5 38.3333334,137.5 L28.3333334,137.5 C26.1111111,137.5 25,136.388889 25,134.166667 L25,132.5 C25,130.277778 26.1111111,129.166667 28.3333334,129.166667 Z" id="路径" fill="#FFFFFF"></path>
            <path d="M28.3333334,112.5 L38.3333334,112.5 C40.5555557,112.5 41.6666666,113.611111 41.6666666,115.833333 L41.6666666,117.5 C41.6666666,119.722222 40.5555555,120.833333 38.3333334,120.833333 L28.3333334,120.833333 C26.1111111,120.833333 25,119.722222 25,117.5 L25,115.833333 C25,113.611111 26.1111111,112.5 28.3333334,112.5 Z" id="路径" fill="#FFFFFF"></path>
        </g>
    </g>
</svg>